<svg width="733" height="720" xmlns="http://www.w3.org/2000/svg" xmlns:xlink="http://www.w3.org/1999/xlink" overflow="hidden"><defs><clipPath id="clip0"><rect x="0" y="0" width="733" height="720"/></clipPath></defs><g clip-path="url(#clip0)"><rect x="0" y="0" width="733" height="720.164" fill="#FFFFFF"/><path d="M136.5 171.539C136.5 137.842 164.034 110.525 198 110.525 231.966 110.525 259.5 137.842 259.5 171.539 259.5 205.236 231.966 232.553 198 232.553 164.034 232.553 136.5 205.236 136.5 171.539Z" stroke="#FFFFFF" stroke-width="1.33303" stroke-miterlimit="8" fill="#4472C4" fill-rule="evenodd"/><text fill="#FFFFFF" font-family="Calibri Light,Calibri Light_MSFontService,sans-serif" font-weight="700" font-size="19" transform="matrix(1 0 0 1.00023 160.413 166)">EPI Family <tspan font-size="19" x="10.9042" y="20.9952">Budget</tspan></text><path d="M171.411 269.211 189.15 269.211 189.15 251.468 205.85 251.468 205.85 269.211 223.589 269.211 223.589 285.914 205.85 285.914 205.85 303.658 189.15 303.658 189.15 285.914 171.411 285.914Z" fill="#B0BCDE" fill-rule="evenodd"/><path d="M136.5 385.088C136.5 351.114 164.034 323.574 198 323.574 231.966 323.574 259.5 351.114 259.5 385.088 259.5 419.061 231.966 446.602 198 446.602 164.034 446.602 136.5 419.061 136.5 385.088Z" stroke="#FFFFFF" stroke-width="1.33303" stroke-miterlimit="8" fill="#4472C4" fill-rule="evenodd"/><text fill="#FFFFFF" font-family="Calibri Light,Calibri Light_MSFontService,sans-serif" font-weight="700" font-size="19" transform="matrix(1 0 0 1.00023 160.017 379)">MIT Living <tspan font-size="19" x="16.6295" y="20.9952">Wage</tspan></text><path d="M171.411 483.26 189.15 483.26 189.15 465.517 205.85 465.517 205.85 483.26 223.589 483.26 223.589 499.963 205.85 499.963 205.85 517.707 189.15 517.707 189.15 499.963 171.411 499.963Z" fill="#B0BCDE" fill-rule="evenodd"/><path d="M133.5 598.636C133.5 564.939 162.378 537.622 198 537.622 233.622 537.622 262.5 564.939 262.5 598.636 262.5 632.333 233.622 659.65 198 659.65 162.378 659.65 133.5 632.333 133.5 598.636Z" stroke="#FFFFFF" stroke-width="1.33303" stroke-miterlimit="8" fill="#4472C4" fill-rule="evenodd"/><text fill="#FFFFFF" font-family="Calibri Light,Calibri Light_MSFontService,sans-serif" font-weight="700" font-size="19" transform="matrix(1 0 0 1.00023 153.748 582)">Washington <tspan font-size="19" x="30.2664" y="20.9952">Self </tspan><tspan font-size="19" x="4.29903" y="41.9904">Sufficiency</tspan></text><path d="M281 371.084 300.5 371.084 300.5 362.082 320 384.587 300.5 407.092 300.5 398.09 281 398.09Z" fill="#B0BCDE" fill-rule="evenodd"/><path d="M336.5 385.088C336.5 311.893 395.598 252.557 468.5 252.557 541.402 252.557 600.5 311.893 600.5 385.088 600.5 458.282 541.402 517.618 468.5 517.618 395.598 517.618 336.5 458.282 336.5 385.088Z" stroke="#FFFFFF" stroke-width="1.33303" stroke-miterlimit="8" fill="#4472C4" fill-rule="evenodd"/><text fill="#FFFFFF" font-family="Calibri Light,Calibri Light_MSFontService,sans-serif" font-weight="700" font-size="43" transform="matrix(1 0 0 1.00023 436.268 373)">Our <tspan font-size="43" x="-52.748" y="46.9893">Calculator</tspan><tspan fill="#000000" font-family="Calibri,Calibri_MSFontService,sans-serif" font-weight="400" font-size="17" x="-299.738" y="-291.934">Sources From:</tspan></text><path d="M0 18 50 18 100 18 100 19 50 19 0 19Z" fill-rule="evenodd" transform="matrix(1 0 0 1.00023 136.53 65.2336)"/></g></svg>