<svg width="733" height="720" xmlns="http://www.w3.org/2000/svg" xmlns:xlink="http://www.w3.org/1999/xlink" overflow="hidden"><defs><clipPath id="clip0"><rect x="0" y="0" width="733" height="720"/></clipPath></defs><g clip-path="url(#clip0)"><rect x="0" y="0" width="733" height="720.164" fill="#FFFFFF"/><path d="M92.5 380.787C92.5 376.809 95.7236 373.585 99.7001 373.585L230.3 373.585C234.276 373.585 237.5 376.809 237.5 380.787L237.5 438.4C237.5 442.377 234.276 445.601 230.3 445.601L99.7001 445.601C95.7236 445.601 92.5 442.377 92.5 438.4Z" stroke="#FFFFFF" stroke-width="1.33303" stroke-miterlimit="8" fill="#4472C4" fill-rule="evenodd"/><text fill="#FFFFFF" font-family="Calibri Light,Calibri Light_MSFontService,sans-serif" font-weight="700" font-size="21" transform="matrix(1 0 0 1.00023 108.738 416)">Cost of Living</text><path d="M236.607 409.44 294.337 201.925" stroke="#34599C" stroke-width="1.33331" stroke-miterlimit="8" fill="none" fill-rule="evenodd"/><path d="M294.5 173.74C294.5 169.762 297.724 166.538 301.7 166.538L432.3 166.538C436.276 166.538 439.5 169.762 439.5 173.74L439.5 231.353C439.5 235.33 436.276 238.554 432.3 238.554L301.7 238.554C297.724 238.554 294.5 235.33 294.5 231.353Z" stroke="#FFFFFF" stroke-width="1.33303" stroke-miterlimit="8" fill="#4472C4" fill-rule="evenodd"/><text fill="#FFFFFF" font-family="Calibri Light,Calibri Light_MSFontService,sans-serif" font-weight="700" font-size="21" transform="matrix(1 0 0 1.00023 332.421 208)">Housing</text><path d="M438.662 201.925 496.392 160.422" stroke="#3D67B1" stroke-width="1.33313" stroke-miterlimit="8" fill="none" fill-rule="evenodd"/><path d="M496.5 131.73C496.5 127.753 499.724 124.528 503.7 124.528L634.3 124.528C638.276 124.528 641.5 127.753 641.5 131.73L641.5 189.343C641.5 193.32 638.276 196.545 634.3 196.545L503.7 196.545C499.724 196.545 496.5 193.32 496.5 189.343Z" stroke="#FFFFFF" stroke-width="1.33303" stroke-miterlimit="8" fill="#4472C4" fill-rule="evenodd"/><text fill="#FFFFFF" font-family="Calibri Light,Calibri Light_MSFontService,sans-serif" font-weight="700" font-size="21" transform="matrix(1 0 0 1.00023 528.584 143)">American <tspan font-size="21" x="-8.87799" y="22.9948">Community </tspan><tspan font-size="21" x="11.8573" y="46.9893">Survey</tspan></text><path d="M438.662 201.925 496.392 243.428" stroke="#3D67B1" stroke-width="1.33313" stroke-miterlimit="8" fill="none" fill-rule="evenodd"/><path d="M496.5 214.749C496.5 210.771 499.724 207.547 503.7 207.547L634.3 207.547C638.276 207.547 641.5 210.771 641.5 214.749L641.5 272.362C641.5 276.339 638.276 279.564 634.3 279.564L503.7 279.564C499.724 279.564 496.5 276.339 496.5 272.362Z" stroke="#FFFFFF" stroke-width="1.33303" stroke-miterlimit="8" fill="#4472C4" fill-rule="evenodd"/><text fill="#FFFFFF" font-family="Calibri Light,Calibri Light_MSFontService,sans-serif" font-weight="700" font-size="21" transform="matrix(1 0 0 1.00023 549.069 250)">HUD</text><path d="M236.607 409.439 294.337 367.937" stroke="#34599C" stroke-width="1.33313" stroke-miterlimit="8" fill="none" fill-rule="evenodd"/><path d="M294.5 339.777C294.5 335.8 297.724 332.576 301.7 332.576L432.3 332.576C436.276 332.576 439.5 335.8 439.5 339.777L439.5 397.39C439.5 401.368 436.276 404.592 432.3 404.592L301.7 404.592C297.724 404.592 294.5 401.368 294.5 397.39Z" stroke="#FFFFFF" stroke-width="1.33303" stroke-miterlimit="8" fill="#4472C4" fill-rule="evenodd"/><text fill="#FFFFFF" font-family="Calibri Light,Calibri Light_MSFontService,sans-serif" font-weight="700" font-size="21" transform="matrix(1 0 0 1.00023 345.488 374)">Food</text><path d="M438.662 367.937 496.392 326.434" stroke="#3D67B1" stroke-width="1.33313" stroke-miterlimit="8" fill="none" fill-rule="evenodd"/><path d="M496.5 297.768C496.5 293.79 499.724 290.566 503.7 290.566L634.3 290.566C638.276 290.566 641.5 293.79 641.5 297.768L641.5 355.381C641.5 359.358 638.276 362.582 634.3 362.582L503.7 362.582C499.724 362.582 496.5 359.358 496.5 355.381Z" stroke="#FFFFFF" stroke-width="1.33303" stroke-miterlimit="8" fill="#4472C4" fill-rule="evenodd"/><text fill="#FFFFFF" font-family="Calibri Light,Calibri Light_MSFontService,sans-serif" font-weight="700" font-size="21" transform="matrix(1 0 0 1.00023 545.017 333)">USDA</text><path d="M438.662 367.937 496.392 409.439" stroke="#3D67B1" stroke-width="1.33313" stroke-miterlimit="8" fill="none" fill-rule="evenodd"/><path d="M496.5 380.787C496.5 376.809 499.724 373.585 503.7 373.585L634.3 373.585C638.276 373.585 641.5 376.809 641.5 380.787L641.5 438.4C641.5 442.377 638.276 445.601 634.3 445.601L503.7 445.601C499.724 445.601 496.5 442.377 496.5 438.4Z" stroke="#FFFFFF" stroke-width="1.33303" stroke-miterlimit="8" fill="#4472C4" fill-rule="evenodd"/><text fill="#FFFFFF" font-family="Calibri Light,Calibri Light_MSFontService,sans-serif" font-weight="700" font-size="21" transform="matrix(1 0 0 1.00023 535.462 404)">Feeding <tspan font-size="21" x="-1.44635" y="22.9948">America</tspan></text><path d="M236.608 409.44 294.337 533.948" stroke="#34599C" stroke-width="1.33328" stroke-miterlimit="8" fill="none" fill-rule="evenodd"/><path d="M294.5 505.815C294.5 501.838 297.724 498.613 301.7 498.613L432.3 498.613C436.276 498.613 439.5 501.838 439.5 505.815L439.5 563.428C439.5 567.405 436.276 570.63 432.3 570.63L301.7 570.63C297.724 570.63 294.5 567.405 294.5 563.428Z" stroke="#FFFFFF" stroke-width="1.33303" stroke-miterlimit="8" fill="#4472C4" fill-rule="evenodd"/><text fill="#FFFFFF" font-family="Calibri Light,Calibri Light_MSFontService,sans-serif" font-weight="700" font-size="21" transform="matrix(1 0 0 1.00023 323.879 540)">Child Care</text><path d="M438.662 533.948 496.392 492.445" stroke="#3D67B1" stroke-width="1.33313" stroke-miterlimit="8" fill="none" fill-rule="evenodd"/><path d="M496.5 463.805C496.5 459.828 499.724 456.604 503.7 456.604L634.3 456.604C638.276 456.604 641.5 459.828 641.5 463.805L641.5 521.418C641.5 525.396 638.276 528.62 634.3 528.62L503.7 528.62C499.724 528.62 496.5 525.396 496.5 521.418Z" stroke="#FFFFFF" stroke-width="1.33303" stroke-miterlimit="8" fill="#4472C4" fill-rule="evenodd"/><text fill="#FFFFFF" font-family="Calibri Light,Calibri Light_MSFontService,sans-serif" font-weight="700" font-size="21" transform="matrix(1 0 0 1.00023 525.934 487)">Child Care <tspan font-size="21" x="16.0963" y="22.9948">Aware</tspan></text><path d="M438.662 533.948 496.392 575.451" stroke="#3D67B1" stroke-width="1.33313" stroke-miterlimit="8" fill="none" fill-rule="evenodd"/><path d="M496.5 546.824C496.5 542.847 499.724 539.623 503.7 539.623L634.3 539.623C638.276 539.623 641.5 542.847 641.5 546.824L641.5 604.437C641.5 608.415 638.276 611.639 634.3 611.639L503.7 611.639C499.724 611.639 496.5 608.415 496.5 604.437Z" stroke="#FFFFFF" stroke-width="1.33303" stroke-miterlimit="8" fill="#4472C4" fill-rule="evenodd"/><text fill="#FFFFFF" font-family="Calibri Light,Calibri Light_MSFontService,sans-serif" font-weight="700" font-size="21" transform="matrix(1 0 0 1.00023 514.644 570)">State Market <tspan font-size="21" x="-1.77295" y="22.9948">Rate Surveys</tspan></text><path d="M236.607 409.44 294.337 616.954" stroke="#34599C" stroke-width="1.33331" stroke-miterlimit="8" fill="none" fill-rule="evenodd"/><path d="M294.5 588.834C294.5 584.857 297.724 581.632 301.7 581.632L432.3 581.632C436.276 581.632 439.5 584.857 439.5 588.834L439.5 646.447C439.5 650.424 436.276 653.649 432.3 653.649L301.7 653.649C297.724 653.649 294.5 650.424 294.5 646.447Z" stroke="#FFFFFF" stroke-width="1.33303" stroke-miterlimit="8" fill="#4472C4" fill-rule="evenodd"/><text fill="#FFFFFF" font-family="Calibri Light,Calibri Light_MSFontService,sans-serif" font-weight="700" font-size="21" transform="matrix(1 0 0 1.00023 356.829 623)">….<tspan fill="#000000" font-family="Calibri,Calibri_MSFontService,sans-serif" font-weight="400" font-size="17" x="-22.086" y="-535.878">Category</tspan></text><path d="M0 18 31.5 18 63 18 63 19 31.5 19 0 19Z" fill-rule="evenodd" transform="matrix(1 0 0 1.00023 334.743 71.4439)"/><text font-family="Calibri,Calibri_MSFontService,sans-serif" font-weight="400" font-size="17" transform="matrix(1 0 0 1.00023 536.002 87)">Source</text><path d="M0 18 24 18 48 18 48 19 24 19 0 19Z" fill-rule="evenodd" transform="matrix(1 0 0 1.00023 536.002 71.4439)"/></g></svg>