<svg xmlns="http://www.w3.org/2000/svg" xmlns:xlink="http://www.w3.org/1999/xlink" xmlns:lucid="lucid" width="1239.73" height="671.77"><g transform="translate(-793.8333333333333 240.4416518343172)" lucid:page-tab-id="eGfsv9u3ZTeS"><path d="M813.83-21.98a6 6 0 0 1 6-6h1187.74a6 6 0 0 1 6 6v271.06a6 6 0 0 1-6 6H819.83a6 6 0 0 1-6-6z" fill="#fff" fill-opacity="0"/><path d="M828.93-27.9h10.03m5 0H854m5.02 0h10.03m5.02 0h10.03m5 0h10.04m5.02 0h10.03m5 0h10.04m5 0h10.04m5.02 0l10.03-.02m5 0h10.04m5.02 0h10.02m5.02 0h10.03m5 0h10.04m5.03 0h10.03m5.02 0h10.03m5.02 0h10.03m5.02 0h10.03m5.02 0h10.03m5 0h10.04m5 0h10.04m5.02 0h10.03m5 0h10.03m5.02 0h10.03m5 0h10.05m5 0h10.04m5.02 0h10.02m5 0h10.04m5.02 0h10.03m5.03 0h10.03m5 0h10.04m5.02-.02h10.03m5.02 0h10.03m5 0h10.04m5.02 0h10.03m5 0h10.04m5 0h10.04m5.02 0h10.03m5.02 0h10.03m5 0h10.04m5.02 0h10.03m5 0h10.05m5 0h10.04m5.02 0h10.03m5.02 0h10.03m5.02 0H1501m5.02 0h10.03m5 0h10.04m5 0h10.04m5.02 0h10.03m5 0h10.03m5.02 0h10.03m5.02 0l10.03-.02m5 0h10.04m5.02 0h10.02m5.02 0h10.03m5 0h10.04m5.03 0h10.03m5 0h10.05m5.02 0h10.03m5.02 0h10.03m5 0h10.04m5.02 0h10.03m5 0h10.04m5 0h10.04m5.02 0h10.03m5.02 0h10.03m5 0h10.04m5.02 0h10.03m5.02 0h10.02m5 0h10.04m5.02 0h10.03m5.02 0h10.04m5 0h10.04m5.02-.02h10.03m5 0h10.05m5 0h10.04m5.02 0h10.03m5 0h10.03m5.02 0h5.02l.93.07.92.2.87.37.8.5.7.6.62.72.5.8.35.87.22.9v5.05m0 5.04v10.07m0 5.04v10.07m0 5.04v10.07m0 5.04v10.06m0 5.04v10.07m.02 5.04v10.1m0 5.02V87.9m0 5.03V103m0 5.04v10.08m0 5.04v10.07m.02 5.04v10.07m0 5.04v10.07m0 5.04v10.06m0 5.04v10.07m0 5.04v10.1m.02 5.02v10.08m0 5.03V239m0 5.04v5.04l-.07.94-.23.92-.36.87-.48.8-.6.72-.73.62-.8.5-.88.35-.92.2h-5m-5.03 0h-10.03m-5 0h-10.04m-5.02 0h-10.03m-5.02 0h-10.03m-5 0h-10.04m-5.02 0h-10.03m-5 0h-10.04m-5 .02h-10.04m-5.02 0h-10.03m-5 0H1853m-5 0h-10.04m-5.02 0h-10.03m-5 0h-10.05m-5 0h-10.04m-5.02 0h-10.03m-5.02 0h-10.03m-5.02 0h-10.03m-5.02 0h-10.03m-5 0h-10.04m-5 0h-10.04m-5.02 0h-10.03m-5 0h-10.03m-5.02 0h-10.03m-5.02 0h-10.03m-5 0h-10.04m-5.02 0h-10.02m-5 0h-10.05m-5 0h-10.04m-5.03 0l-10.03.02m-5 0h-10.05m-5.02 0h-10.03m-5.02 0H1522m-5 0h-10.04m-5.02 0h-10.03m-5 0h-10.04m-5 0h-10.04m-5.02 0h-10.03m-5.02 0h-10.03m-5 0h-10.04m-5.02 0h-10.03m-5.02 0h-10.02m-5 0h-10.04m-5.02 0h-10.03m-5.02 0h-10.04m-5 0h-10.04m-5.02 0h-10.03m-5 0h-10.05m-5 0h-10.04m-5.02 0h-10.03m-5 0l-10.03.02m-5.02 0h-10.03m-5.02 0h-10.03m-5 0h-10.04m-5.02 0H1191m-5.02 0h-10.03m-5 0h-10.04m-5.03 0h-10.03m-5.02 0h-10.03m-5.02 0h-10.03m-5.02 0h-10.03m-5 0h-10.05m-5 0h-10.04m-5 0h-10.04m-5 0h-10.05m-5 0h-10.03m-5.02 0h-10.03m-5 0h-10.04m-5.02 0h-10.03m-5.02 0H965.3m-5 0h-10.04m-5.02 0H935.2m-5.03.02h-10.03m-5 0H905.1m-5.02 0h-10.03m-5.02 0H875m-5 0h-10.04m-5.02 0H844.9m-5 0h-10.04m-5 0h-5.03l-.94-.07-.92-.2-.87-.37-.8-.5-.7-.6-.62-.72-.5-.8-.35-.86-.22-.92v-5.04m0-5.03v-10.08m0-5.03v-10.08m0-5.04v-10.07m0-5.04v-10.06m0-5.04v-10.07m-.02-5.04V154.3m0-5.04V139.2m0-5.03V124.1m0-5.04v-10.08m0-5.03l-.02-10.08m0-5.04V78.76m0-5.04V63.65m0-5.04V48.55m0-5.04V33.43m0-5.04l-.02-10.08m0-5.04V3.2m0-5.03V-11.9m0-5.04v-5.04l.07-.94.23-.9.36-.88.48-.8.6-.72.73-.6.8-.5.88-.37.9-.2h5.03" stroke="#1071e5" fill="none"/><path d="M1093.83 292a6 6 0 0 1 6-6h148a6 6 0 0 1 6 6v108a6 6 0 0 1-6 6h-148a6 6 0 0 1-6-6z" stroke="#3a414a" fill="#fff"/><use xlink:href="#a" transform="matrix(1,0,0,1,1105.8333333333335,298) translate(32.876543209876544 38.77777777777778)"/><use xlink:href="#b" transform="matrix(1,0,0,1,1105.8333333333335,298) translate(19.944444444444436 65.44444444444446)"/><path d="M1233.83-112.44c0 6.63-26.86 12-60 12-33.13 0-60-5.37-60-12v-96c0-6.63 26.87-12 60-12 33.14 0 60 5.37 60 12z" stroke="#979ea8" fill="#fff"/><path d="M1233.83-208.44c0 6.63-26.86 12-60 12-33.13 0-60-5.37-60-12" stroke="#979ea8" fill="none"/><use xlink:href="#c" transform="matrix(1,0,0,1,1118.8333333333335,-191.4416518343172) translate(29.72222222222223 47.34027777777778)"/><path d="M1832.43 286.67a6 6 0 0 1 6-6h148a6 6 0 0 1 6 6v118.66a6 6 0 0 1-6 6h-148a6 6 0 0 1-6-6z" stroke="#ced4db" fill="#fff"/><use xlink:href="#d" transform="matrix(1,0,0,1,1844.4316011813758,292.6666666666668) translate(42.72222222222223 17.77777777777778)"/><use xlink:href="#e" transform="matrix(1,0,0,1,1844.4316011813758,292.6666666666668) translate(20.53086419753086 44.44444444444444)"/><use xlink:href="#f" transform="matrix(1,0,0,1,1844.4316011813758,292.6666666666668) translate(6.981481481481481 71.11111111111111)"/><use xlink:href="#g" transform="matrix(1,0,0,1,1844.4316011813758,292.6666666666668) translate(50.098765432098766 97.77777777777777)"/><path d="M1529.58 305v-94.58a6 6 0 0 1 6-6h42.7" stroke="#1071e5" fill="none"/><path d="M1530.08 305.53l-.5-.03-.5.02V305h1z" stroke="#1071e5" stroke-width=".05" fill="#1071e5"/><path d="M1593.04 204.42l-14.27 4.63v-9.27z" stroke="#1071e5" fill="#1071e5"/><path d="M1174.33-30.85h-1v-28.88h1zm0-50.2h-1v-18.4h1z" stroke="#1071e5" stroke-width=".05" fill="#1071e5"/><path d="M1173.83-99.94l.5-.02v.53h-1v-.53z" fill="#1071e5"/><path d="M1173.83-99.97h.53v.57h-1.05v-.6zm-.47.52h.95v-.48h-.94z" stroke="#1071e5" stroke-width=".05" fill="#1071e5"/><path d="M1173.83-16.08l-4.63-14.27h9.27z" fill="#1071e5"/><path d="M1173.83-14.46l-5.32-16.4h10.66zm-3.94-15.4l3.93 12.16 3.95-12.15z" stroke="#1071e5" stroke-width=".05" fill="#1071e5"/><use xlink:href="#h" transform="matrix(1,0,0,1,1028.2530864197533,-81.06435054532938) translate(0 14.222222222222223)"/><use xlink:href="#i" transform="matrix(1,0,0,1,1028.2530864197533,-81.06435054532938) translate(68.0493827160494 14.222222222222223)"/><use xlink:href="#j" transform="matrix(1,0,0,1,1028.2530864197533,-81.06435054532938) translate(83.35802469135804 14.222222222222223)"/><use xlink:href="#k" transform="matrix(1,0,0,1,1028.2530864197533,-81.06435054532938) translate(98.17283950617286 14.222222222222223)"/><use xlink:href="#l" transform="matrix(1,0,0,1,1028.2530864197533,-81.06435054532938) translate(207.4567901234568 14.222222222222223)"/><path d="M968.83 346h124.04" stroke="#3a414a" fill="none"/><path d="M968.85 346.5h-.55l.03-.5v-.5h.52zM1093.37 346.5h-.5v-1h.5z" stroke="#3a414a" stroke-width=".05" fill="#3a414a"/><path d="M1103.83-8a6 6 0 0 1 6-6h128a6 6 0 0 1 6 6v92a6 6 0 0 1-6 6h-128a6 6 0 0 1-6-6z" stroke="#1071e5" fill="#fff"/><use xlink:href="#m" transform="matrix(1,0,0,1,1115.8333333333335,-2) translate(8.061728395061735 17.77777777777778)"/><use xlink:href="#n" transform="matrix(1,0,0,1,1115.8333333333335,-2) translate(77.07407407407408 17.77777777777778)"/><use xlink:href="#o" transform="matrix(1,0,0,1,1115.8333333333335,-2) translate(8.709876543209873 44.44444444444444)"/><use xlink:href="#p" transform="matrix(1,0,0,1,1115.8333333333335,-2) translate(54.26543209876543 44.44444444444444)"/><use xlink:href="#q" transform="matrix(1,0,0,1,1115.8333333333335,-2) translate(-4.808641975308646 71.11111111111111)"/><path d="M1595.1 151.95a6 6 0 0 1 6-6h128a6 6 0 0 1 6 6v66.66a6 6 0 0 1-6 6h-128a6 6 0 0 1-6-6z" stroke="#1071e5" fill="#fff"/><use xlink:href="#r" transform="matrix(1,0,0,1,1607.0982678480425,157.94584074950808) translate(0.6543209876543159 31.52777777777778)"/><path d="M857.83 4.67a6 6 0 0 1 6-6h128a6 6 0 0 1 6 6v66.66a6 6 0 0 1-6 6h-128a6 6 0 0 1-6-6z" stroke="#1071e5" fill="#fff"/><use xlink:href="#s" transform="matrix(1,0,0,1,869.8333333333335,10.666666666666629) translate(-22.12345679012347 31.944444444444443)"/><path d="M928.33-18.18h-1l.02-26.07h1zm184.5-141.76H933.85l-.88.07-.84.2-.8.33-.73.45-.65.57-.57.66-.45.73-.33.8-.2.82-.02 47.07h-1l.03-47.2.25-1 .4-.94.52-.86.67-.78.77-.66.88-.53.94-.4 1-.23 1-.08h179z" stroke="#1071e5" stroke-width=".05" fill="#1071e5"/><path d="M1113.33-159.94h-.5v-1h.5z" fill="#1071e5"/><path d="M1113.36-159.92h-.56v-1.05h.56zm-.5-1v.95h.45v-.95z" stroke="#1071e5" stroke-width=".05" fill="#1071e5"/><path d="M927.83-3.4L923.2-17.7h9.27z" fill="#1071e5"/><path d="M927.83-1.8l-5.32-16.38h10.66zm-3.94-15.38l3.93 12.15 3.95-12.15z" stroke="#1071e5" stroke-width=".05" fill="#1071e5"/><use xlink:href="#t" transform="matrix(1,0,0,1,855.4135802469137,-108.2483057030986) translate(57.14080246913579 14.222222222222223)"/><use xlink:href="#u" transform="matrix(1,0,0,1,855.4135802469137,-108.2483057030986) translate(0.0049999999999954525 35.55555555555556)"/><use xlink:href="#v" transform="matrix(1,0,0,1,855.4135802469137,-108.2483057030986) translate(105.4370987654321 35.55555555555556)"/><use xlink:href="#w" transform="matrix(1,0,0,1,855.4135802469137,-108.2483057030986) translate(14.696358024691335 56.88888888888889)"/><use xlink:href="#x" transform="matrix(1,0,0,1,855.4135802469137,-108.2483057030986) translate(100.5729012345679 56.88888888888889)"/><path d="M1496.57-112.44c0 6.63-26.87 12-60 12-33.14 0-60-5.37-60-12v-96c0-6.63 26.86-12 60-12 33.13 0 60 5.37 60 12z" stroke="#979ea8" fill="#fff"/><path d="M1496.57-208.44c0 6.63-26.87 12-60 12-33.14 0-60-5.37-60-12" stroke="#979ea8" fill="none"/><use xlink:href="#y" transform="matrix(1,0,0,1,1381.5669375056934,-191.4416518343172) translate(21.7283950617284 33.90277777777778)"/><use xlink:href="#z" transform="matrix(1,0,0,1,1381.5669375056934,-191.4416518343172) translate(22.345679012345684 60.56944444444445)"/><path d="M1366.57 4.67a6 6 0 0 1 6-6h128a6 6 0 0 1 6 6v66.66a6 6 0 0 1-6 6h-128a6 6 0 0 1-6-6z" stroke="#1071e5" fill="#fff"/><use xlink:href="#A" transform="matrix(1,0,0,1,1378.5669375056934,10.666666666666629) translate(-15.981481481481495 31.944444444444443)"/><path d="M1437.07-18.18h-1v-33.2h1zm0-54.54h-1v-26.72h1z" stroke="#1071e5" stroke-width=".05" fill="#1071e5"/><path d="M1436.57-99.94l.5-.02v.53h-1v-.53z" fill="#1071e5"/><path d="M1436.57-99.97h.52v.57h-1.06v-.6zm-.48.52h.94v-.48h-.95z" stroke="#1071e5" stroke-width=".05" fill="#1071e5"/><path d="M1436.57-3.4l-4.64-14.28h9.27z" fill="#1071e5"/><path d="M1436.57-1.8l-5.33-16.38h10.65zm-3.95-15.38l3.95 12.15 3.94-12.15z" stroke="#1071e5" stroke-width=".05" fill="#1071e5"/><use xlink:href="#B" transform="matrix(1,0,0,1,1345.011381950138,-72.72088119615472) translate(0 14.222222222222223)"/><use xlink:href="#C" transform="matrix(1,0,0,1,1345.011381950138,-72.72088119615472) translate(65.92592592592592 14.222222222222223)"/><use xlink:href="#D" transform="matrix(1,0,0,1,1345.011381950138,-72.72088119615472) translate(111.1604938271605 14.222222222222223)"/><path d="M1436.57 78.3v59.02" stroke="#1071e5" fill="none"/><path d="M1437.07 78.3h-1v-.5h1zM1437.07 137.82h-1v-.52h1z" stroke="#1071e5" stroke-width=".05" fill="#1071e5"/><path d="M865.17 144.28a6 6 0 0 1 6-6H984.5a6 6 0 0 1 6 6v88c-20.93-15.7-33.97-15.7-41.86-15.7-12.53 0-29.2 15.7-41.74 15.7-7.77 0-20.93 0-41.73-15.7z" stroke="#1071e5" fill="#fff"/><use xlink:href="#E" transform="matrix(1,0,0,1,870.1666666666667,143.27917408284145) translate(38.24691358024691 39.34027777777778)"/><path d="M927.83 78.3v59.02" stroke="#1071e5" fill="none"/><path d="M928.33 78.3h-1v-.5h1zM928.33 137.82h-1v-.52h1z" stroke="#1071e5" stroke-width=".05" fill="#1071e5"/><path d="M1373.9 144.28a6 6 0 0 1 6-6h113.33a6 6 0 0 1 6 6v88c-20.93-15.7-33.96-15.7-41.86-15.7-12.53 0-29.2 15.7-41.73 15.7-7.77 0-20.93 0-41.74-15.7z" stroke="#1071e5" fill="#fff"/><use xlink:href="#E" transform="matrix(1,0,0,1,1378.9002708390267,143.27917408284145) translate(38.24691358024691 39.34027777777778)"/><path d="M1570.58 346h245" stroke="#979ea8" fill="none"/><path d="M1570.6 346.5h-.56l.04-.5-.02-.5h.53z" stroke="#979ea8" stroke-width=".05" fill="#979ea8"/><path d="M1830.35 346l-14.27 4.64v-9.28z" stroke="#979ea8" fill="#979ea8"/><path d="M1254.8 346h233.77" stroke="#282c33" fill="none"/><path d="M1254.8 346.5h-.5v-1h.5zM1489.07 346l.02.5h-.54v-1h.55z" stroke="#282c33" stroke-width=".05" fill="#282c33"/><path d="M1958.96 145.28c17.68 0 32 17.9 32 40s-14.32 40-32 40h-96c-17.67 0-32-17.9-32-40s14.33-40 32-40z" stroke="#1071e5" fill="#fff"/><use xlink:href="#F" transform="matrix(1,0,0,1,1835.9629315237248,150.27917408284145) translate(24.444444444444443 39.65277777777778)"/><path d="M1736.06 185.28l78.04.55" stroke="#1071e5" fill="none"/><path d="M1736.08 184.78v1h-.52v-1z" stroke="#1071e5" stroke-width=".05" fill="#1071e5"/><path d="M1828.87 185.93l-14.3 4.54.07-9.27z" stroke="#1071e5" fill="#1071e5"/><path d="M1213.83 185.28c0 22.1-17.9 40-40 40s-40-17.9-40-40 17.9-40 40-40 40 17.9 40 40z" stroke="#282c33" fill="#fff"/><g><use xlink:href="#G" transform="matrix(1,0,0,1,1138.8333333333333,150.27917408284145) translate(13.925925925925927 39.65277777777778)"/></g><path d="M1173.83 226.28v58.76" stroke="#282c33" fill="none"/><path d="M1173.83 225.78l.5-.02v.53h-1v-.55zM1174.33 285.54h-1v-.52h1z" stroke="#282c33" stroke-width=".05" fill="#282c33"/><path d="M967.83 346c0 22.1-17.9 40-40 40s-40-17.9-40-40 17.9-40 40-40 40 17.9 40 40z" stroke="#282c33" fill="#fff"/><g><use xlink:href="#H" transform="matrix(1,0,0,1,892.8333333333335,311) translate(2.962962962962962 26.111111111111114)"/><use xlink:href="#I" transform="matrix(1,0,0,1,892.8333333333335,311) translate(48.51851851851852 26.111111111111114)"/><use xlink:href="#J" transform="matrix(1,0,0,1,892.8333333333335,311) translate(-22.345679012345684 52.77777777777778)"/></g><path d="M1569.58 346c0 22.1-17.9 40-40 40s-40-17.9-40-40 17.9-40 40-40 40 17.9 40 40z" stroke="#282c33" fill="#fff"/><g><use xlink:href="#K" transform="matrix(1,0,0,1,1494.5750049441167,311.0000000000001) translate(5.901234567901234 26.111111111111114)"/><use xlink:href="#L" transform="matrix(1,0,0,1,1494.5750049441167,311.0000000000001) translate(-7.648148148148145 52.77777777777778)"/></g><path d="M1500.2 177.73H1578.23" stroke="#1071e5" fill="none"/><path d="M1500.2 178.23h-.5v-1h.5z" stroke="#1071e5" stroke-width=".05" fill="#1071e5"/><path d="M1593 177.73l-14.26 4.64v-9.28z" stroke="#1071e5" fill="#1071e5"/><path d="M927.83 225.3v63.82" stroke="#1071e5" fill="none"/><path d="M928.33 225.32h-1v-.26l1-.5z" stroke="#1071e5" stroke-width=".05" fill="#1071e5"/><path d="M927.83 303.88l-4.63-14.26h9.27z" stroke="#1071e5" fill="#1071e5"/><path d="M1173.83 90.96v37.43" stroke="#1071e5" fill="none"/><path d="M1174.33 90.98h-1v-.52h1z" stroke="#1071e5" stroke-width=".05" fill="#1071e5"/><path d="M1173.83 143.16l-4.63-14.27h9.27z" stroke="#1071e5" fill="#1071e5"/><defs><path fill="#3a414a" d="M30-248c118-7 216 8 213 122C240-48 200 0 122 0H30v-248zM63-27c89 8 146-16 146-99s-60-101-146-95v194" id="M"/><path fill="#3a414a" d="M100-194c62-1 85 37 85 99 1 63-27 99-86 99S16-35 15-95c0-66 28-99 85-99zM99-20c44 1 53-31 53-75 0-43-8-75-51-75s-53 32-53 75 10 74 51 75" id="N"/><path fill="#3a414a" d="M96-169c-40 0-48 33-48 73s9 75 48 75c24 0 41-14 43-38l32 2c-6 37-31 61-74 61-59 0-76-41-82-99-10-93 101-131 147-64 4 7 5 14 7 22l-32 3c-4-21-16-35-41-35" id="O"/><path fill="#3a414a" d="M143 0L79-87 56-68V0H24v-261h32v163l83-92h37l-77 82L181 0h-38" id="P"/><path fill="#3a414a" d="M100-194c63 0 86 42 84 106H49c0 40 14 67 53 68 26 1 43-12 49-29l28 8c-11 28-37 45-77 45C44 4 14-33 15-96c1-61 26-98 85-98zm52 81c6-60-76-77-97-28-3 7-6 17-6 28h103" id="Q"/><path fill="#3a414a" d="M114-163C36-179 61-72 57 0H25l-1-190h30c1 12-1 29 2 39 6-27 23-49 58-41v29" id="R"/><g id="a"><use transform="matrix(0.06172839506172839,0,0,0.06172839506172839,0,0)" xlink:href="#M"/><use transform="matrix(0.06172839506172839,0,0,0.06172839506172839,15.987654320987653,0)" xlink:href="#N"/><use transform="matrix(0.06172839506172839,0,0,0.06172839506172839,28.333333333333332,0)" xlink:href="#O"/><use transform="matrix(0.06172839506172839,0,0,0.06172839506172839,39.44444444444444,0)" xlink:href="#P"/><use transform="matrix(0.06172839506172839,0,0,0.06172839506172839,50.55555555555556,0)" xlink:href="#Q"/><use transform="matrix(0.06172839506172839,0,0,0.06172839506172839,62.901234567901234,0)" xlink:href="#R"/></g><path fill="#3a414a" d="M212-179c-10-28-35-45-73-45-59 0-87 40-87 99 0 60 29 101 89 101 43 0 62-24 78-52l27 14C228-24 195 4 139 4 59 4 22-46 18-125c-6-104 99-153 187-111 19 9 31 26 39 46" id="S"/><path fill="#3a414a" d="M117-194c89-4 53 116 60 194h-32v-121c0-31-8-49-39-48C34-167 62-67 57 0H25l-1-190h30c1 10-1 24 2 32 11-22 29-35 61-36" id="T"/><path fill="#3a414a" d="M59-47c-2 24 18 29 38 22v24C64 9 27 4 27-40v-127H5v-23h24l9-43h21v43h35v23H59v120" id="U"/><path fill="#3a414a" d="M141-36C126-15 110 5 73 4 37 3 15-17 15-53c-1-64 63-63 125-63 3-35-9-54-41-54-24 1-41 7-42 31l-33-3c5-37 33-52 76-52 45 0 72 20 72 64v82c-1 20 7 32 28 27v20c-31 9-61-2-59-35zM48-53c0 20 12 33 32 33 41-3 63-29 60-74-43 2-92-5-92 41" id="V"/><path fill="#3a414a" d="M24-231v-30h32v30H24zM24 0v-190h32V0H24" id="W"/><g id="b"><use transform="matrix(0.06172839506172839,0,0,0.06172839506172839,0,0)" xlink:href="#S"/><use transform="matrix(0.06172839506172839,0,0,0.06172839506172839,15.987654320987653,0)" xlink:href="#N"/><use transform="matrix(0.06172839506172839,0,0,0.06172839506172839,28.333333333333332,0)" xlink:href="#T"/><use transform="matrix(0.06172839506172839,0,0,0.06172839506172839,40.67901234567901,0)" xlink:href="#U"/><use transform="matrix(0.06172839506172839,0,0,0.06172839506172839,46.851851851851855,0)" xlink:href="#V"/><use transform="matrix(0.06172839506172839,0,0,0.06172839506172839,59.19753086419753,0)" xlink:href="#W"/><use transform="matrix(0.06172839506172839,0,0,0.06172839506172839,64.07407407407408,0)" xlink:href="#T"/><use transform="matrix(0.06172839506172839,0,0,0.06172839506172839,76.41975308641976,0)" xlink:href="#Q"/><use transform="matrix(0.06172839506172839,0,0,0.06172839506172839,88.76543209876544,0)" xlink:href="#R"/></g><path fill="#979ea8" d="M140-251c81 0 123 46 123 126C263-46 219 4 140 4 59 4 17-45 17-125s42-126 123-126zm0 227c63 0 89-41 89-101s-29-99-89-99c-61 0-89 39-89 99S79-25 140-24" id="X"/><path fill="#979ea8" d="M185-189c-5-48-123-54-124 2 14 75 158 14 163 119 3 78-121 87-175 55-17-10-28-26-33-46l33-7c5 56 141 63 141-1 0-78-155-14-162-118-5-82 145-84 179-34 5 7 8 16 11 25" id="Y"/><path fill="#979ea8" d="M240 0l2-218c-23 76-54 145-80 218h-23L58-218 59 0H30v-248h44l77 211c21-75 51-140 76-211h43V0h-30" id="Z"/><g id="c"><use transform="matrix(0.06172839506172839,0,0,0.06172839506172839,0,0)" xlink:href="#X"/><use transform="matrix(0.06172839506172839,0,0,0.06172839506172839,17.28395061728395,0)" xlink:href="#Y"/><use transform="matrix(0.06172839506172839,0,0,0.06172839506172839,32.09876543209876,0)" xlink:href="#Z"/></g><path fill="#ced4db" d="M63-220v92h138v28H63V0H30v-248h175v28H63" id="aa"/><path fill="#ced4db" d="M100-194c62-1 85 37 85 99 1 63-27 99-86 99S16-35 15-95c0-66 28-99 85-99zM99-20c44 1 53-31 53-75 0-43-8-75-51-75s-53 32-53 75 10 74 51 75" id="ab"/><path fill="#ced4db" d="M85-194c31 0 48 13 60 33l-1-100h32l1 261h-30c-2-10 0-23-3-31C134-8 116 4 85 4 32 4 16-35 15-94c0-66 23-100 70-100zm9 24c-40 0-46 34-46 75 0 40 6 74 45 74 42 0 51-32 51-76 0-42-9-74-50-73" id="ac"/><g id="d"><use transform="matrix(0.06172839506172839,0,0,0.06172839506172839,0,0)" xlink:href="#aa"/><use transform="matrix(0.06172839506172839,0,0,0.06172839506172839,13.518518518518517,0)" xlink:href="#ab"/><use transform="matrix(0.06172839506172839,0,0,0.06172839506172839,25.864197530864196,0)" xlink:href="#ab"/><use transform="matrix(0.06172839506172839,0,0,0.06172839506172839,38.20987654320987,0)" xlink:href="#ac"/></g><path fill="#ced4db" d="M33 0v-248h34V0H33" id="ad"/><path fill="#ced4db" d="M117-194c89-4 53 116 60 194h-32v-121c0-31-8-49-39-48C34-167 62-67 57 0H25l-1-190h30c1 10-1 24 2 32 11-22 29-35 61-36" id="ae"/><path fill="#ced4db" d="M135-143c-3-34-86-38-87 0 15 53 115 12 119 90S17 21 10-45l28-5c4 36 97 45 98 0-10-56-113-15-118-90-4-57 82-63 122-42 12 7 21 19 24 35" id="af"/><path fill="#ced4db" d="M100-194c63 0 86 42 84 106H49c0 40 14 67 53 68 26 1 43-12 49-29l28 8c-11 28-37 45-77 45C44 4 14-33 15-96c1-61 26-98 85-98zm52 81c6-60-76-77-97-28-3 7-6 17-6 28h103" id="ag"/><path fill="#ced4db" d="M96-169c-40 0-48 33-48 73s9 75 48 75c24 0 41-14 43-38l32 2c-6 37-31 61-74 61-59 0-76-41-82-99-10-93 101-131 147-64 4 7 5 14 7 22l-32 3c-4-21-16-35-41-35" id="ah"/><path fill="#ced4db" d="M84 4C-5 8 30-112 23-190h32v120c0 31 7 50 39 49 72-2 45-101 50-169h31l1 190h-30c-1-10 1-25-2-33-11 22-28 36-60 37" id="ai"/><path fill="#ced4db" d="M114-163C36-179 61-72 57 0H25l-1-190h30c1 12-1 29 2 39 6-27 23-49 58-41v29" id="aj"/><path fill="#ced4db" d="M24-231v-30h32v30H24zM24 0v-190h32V0H24" id="ak"/><path fill="#ced4db" d="M59-47c-2 24 18 29 38 22v24C64 9 27 4 27-40v-127H5v-23h24l9-43h21v43h35v23H59v120" id="al"/><path fill="#ced4db" d="M179-190L93 31C79 59 56 82 12 73V49c39 6 53-20 64-50L1-190h34L92-34l54-156h33" id="am"/><g id="e"><use transform="matrix(0.06172839506172839,0,0,0.06172839506172839,0,0)" xlink:href="#ad"/><use transform="matrix(0.06172839506172839,0,0,0.06172839506172839,6.172839506172839,0)" xlink:href="#ae"/><use transform="matrix(0.06172839506172839,0,0,0.06172839506172839,18.51851851851852,0)" xlink:href="#af"/><use transform="matrix(0.06172839506172839,0,0,0.06172839506172839,29.62962962962963,0)" xlink:href="#ag"/><use transform="matrix(0.06172839506172839,0,0,0.06172839506172839,41.97530864197531,0)" xlink:href="#ah"/><use transform="matrix(0.06172839506172839,0,0,0.06172839506172839,53.08641975308642,0)" xlink:href="#ai"/><use transform="matrix(0.06172839506172839,0,0,0.06172839506172839,65.4320987654321,0)" xlink:href="#aj"/><use transform="matrix(0.06172839506172839,0,0,0.06172839506172839,72.77777777777779,0)" xlink:href="#ak"/><use transform="matrix(0.06172839506172839,0,0,0.06172839506172839,77.65432098765433,0)" xlink:href="#al"/><use transform="matrix(0.06172839506172839,0,0,0.06172839506172839,83.82716049382717,0)" xlink:href="#am"/></g><path fill="#ced4db" d="M141-36C126-15 110 5 73 4 37 3 15-17 15-53c-1-64 63-63 125-63 3-35-9-54-41-54-24 1-41 7-42 31l-33-3c5-37 33-52 76-52 45 0 72 20 72 64v82c-1 20 7 32 28 27v20c-31 9-61-2-59-35zM48-53c0 20 12 33 32 33 41-3 63-29 60-74-43 2-92-5-92 41" id="an"/><path fill="#ced4db" d="M24 0v-261h32V0H24" id="ao"/><path fill="#ced4db" d="M68-38c1 34 0 65-14 84H32c9-13 17-26 17-46H33v-38h35" id="ap"/><g id="f"><use transform="matrix(0.06172839506172839,0,0,0.06172839506172839,0,0)" xlink:href="#ah"/><use transform="matrix(0.06172839506172839,0,0,0.06172839506172839,11.11111111111111,0)" xlink:href="#an"/><use transform="matrix(0.06172839506172839,0,0,0.06172839506172839,23.45679012345679,0)" xlink:href="#ao"/><use transform="matrix(0.06172839506172839,0,0,0.06172839506172839,28.333333333333336,0)" xlink:href="#ah"/><use transform="matrix(0.06172839506172839,0,0,0.06172839506172839,39.44444444444444,0)" xlink:href="#ai"/><use transform="matrix(0.06172839506172839,0,0,0.06172839506172839,51.79012345679012,0)" xlink:href="#ao"/><use transform="matrix(0.06172839506172839,0,0,0.06172839506172839,56.666666666666664,0)" xlink:href="#an"/><use transform="matrix(0.06172839506172839,0,0,0.06172839506172839,69.01234567901234,0)" xlink:href="#al"/><use transform="matrix(0.06172839506172839,0,0,0.06172839506172839,75.18518518518518,0)" xlink:href="#ak"/><use transform="matrix(0.06172839506172839,0,0,0.06172839506172839,80.06172839506172,0)" xlink:href="#ab"/><use transform="matrix(0.06172839506172839,0,0,0.06172839506172839,92.4074074074074,0)" xlink:href="#ae"/><use transform="matrix(0.06172839506172839,0,0,0.06172839506172839,104.75308641975309,0)" xlink:href="#af"/><use transform="matrix(0.06172839506172839,0,0,0.06172839506172839,115.8641975308642,0)" xlink:href="#ap"/></g><path fill="#ced4db" d="M33 0v-38h34V0H33" id="aq"/><g id="g"><use transform="matrix(0.06172839506172839,0,0,0.06172839506172839,0,0)" xlink:href="#ag"/><use transform="matrix(0.06172839506172839,0,0,0.06172839506172839,12.345679012345679,0)" xlink:href="#al"/><use transform="matrix(0.06172839506172839,0,0,0.06172839506172839,18.51851851851852,0)" xlink:href="#ah"/><use transform="matrix(0.06172839506172839,0,0,0.06172839506172839,29.62962962962963,0)" xlink:href="#aq"/></g><path fill="#1071e5" d="M128 0H69L1-190h53L99-40l48-150h52" id="ar"/><path fill="#1071e5" d="M25-224v-37h50v37H25zM25 0v-190h50V0H25" id="as"/><path fill="#1071e5" d="M135-150c-39-12-60 13-60 57V0H25l-1-190h47c2 13-1 29 3 40 6-28 27-53 61-41v41" id="at"/><path fill="#1071e5" d="M195-6C206 82 75 100 31 46c-4-6-6-13-8-21l49-6c3 16 16 24 34 25 40 0 42-37 40-79-11 22-30 35-61 35-53 0-70-43-70-97 0-56 18-96 73-97 30 0 46 14 59 34l2-30h47zm-90-29c32 0 41-27 41-63 0-35-9-62-40-62-32 0-39 29-40 63 0 36 9 62 39 62" id="au"/><path fill="#1071e5" d="M135-194c87-1 58 113 63 194h-50c-7-57 23-157-34-157-59 0-34 97-39 157H25l-1-190h47c2 12-1 28 3 38 12-26 28-41 61-42" id="av"/><path fill="#1071e5" d="M133-34C117-15 103 5 69 4 32 3 11-16 11-54c-1-60 55-63 116-61 1-26-3-47-28-47-18 1-26 9-28 27l-52-2c7-38 36-58 82-57s74 22 75 68l1 82c-1 14 12 18 25 15v27c-30 8-71 5-69-32zm-48 3c29 0 43-24 42-57-32 0-66-3-65 30 0 17 8 27 23 27" id="aw"/><g id="h"><use transform="matrix(0.04938271604938272,0,0,0.04938271604938272,0,0)" xlink:href="#ar"/><use transform="matrix(0.04938271604938272,0,0,0.04938271604938272,9.876543209876544,0)" xlink:href="#as"/><use transform="matrix(0.04938271604938272,0,0,0.04938271604938272,14.814814814814817,0)" xlink:href="#at"/><use transform="matrix(0.04938271604938272,0,0,0.04938271604938272,21.7283950617284,0)" xlink:href="#au"/><use transform="matrix(0.04938271604938272,0,0,0.04938271604938272,32.543209876543216,0)" xlink:href="#as"/><use transform="matrix(0.04938271604938272,0,0,0.04938271604938272,37.48148148148149,0)" xlink:href="#av"/><use transform="matrix(0.04938271604938272,0,0,0.04938271604938272,48.296296296296305,0)" xlink:href="#as"/><use transform="matrix(0.04938271604938272,0,0,0.04938271604938272,53.23456790123457,0)" xlink:href="#aw"/></g><path fill="#1071e5" d="M125-100v72H85v-72H15v-39h70v-72h40v72h71v39h-71" id="ax"/><use transform="matrix(0.04938271604938272,0,0,0.04938271604938272,0,0)" xlink:href="#ax" id="i"/><path fill="#1071e5" d="M99-251c69 0 84 53 88 123 5 99-61 162-144 118-15-8-21-25-26-45l46-6c4 31 50 33 63 7 7-15 12-36 12-60-9 18-29 28-54 28-48 0-72-32-72-82 0-55 31-83 87-83zm-1 128c24 0 37-16 37-39 0-27-10-51-37-51-25 0-35 19-35 45 0 25 10 45 35 45" id="ay"/><use transform="matrix(0.04938271604938272,0,0,0.04938271604938272,0,0)" xlink:href="#ay" id="j"/><path fill="#1071e5" d="M137-138c1-29-70-34-71-4 15 46 118 7 119 86 1 83-164 76-172 9l43-7c4 19 20 25 44 25 33 8 57-30 24-41C81-84 22-81 20-136c-2-80 154-74 161-7" id="az"/><path fill="#1071e5" d="M85 4C-2 5 27-109 22-190h50c7 57-23 150 33 157 60-5 35-97 40-157h50l1 190h-47c-2-12 1-28-3-38-12 25-28 42-61 42" id="aA"/><path fill="#1071e5" d="M110-194c64 0 96 36 96 99 0 64-35 99-97 99-61 0-95-36-95-99 0-62 34-99 96-99zm-1 164c35 0 45-28 45-65 0-40-10-65-43-65-34 0-45 26-45 65 0 36 10 65 43 65" id="aB"/><path fill="#1071e5" d="M88-194c31-1 46 15 58 34l-1-101h50l1 261h-48c-2-10 0-23-3-31C134-8 116 4 84 4 32 4 16-41 15-95c0-56 19-97 73-99zm17 164c33 0 40-30 41-66 1-37-9-64-41-64s-38 30-39 65c0 43 13 65 39 65" id="aC"/><g id="k"><use transform="matrix(0.04938271604938272,0,0,0.04938271604938272,0,0)" xlink:href="#az"/><use transform="matrix(0.04938271604938272,0,0,0.04938271604938272,9.876543209876544,0)" xlink:href="#aA"/><use transform="matrix(0.04938271604938272,0,0,0.04938271604938272,20.69135802469136,0)" xlink:href="#at"/><use transform="matrix(0.04938271604938272,0,0,0.04938271604938272,27.604938271604947,0)" xlink:href="#at"/><use transform="matrix(0.04938271604938272,0,0,0.04938271604938272,34.518518518518526,0)" xlink:href="#aB"/><use transform="matrix(0.04938271604938272,0,0,0.04938271604938272,45.33333333333334,0)" xlink:href="#aA"/><use transform="matrix(0.04938271604938272,0,0,0.04938271604938272,56.14814814814817,0)" xlink:href="#av"/><use transform="matrix(0.04938271604938272,0,0,0.04938271604938272,66.96296296296298,0)" xlink:href="#aC"/><use transform="matrix(0.04938271604938272,0,0,0.04938271604938272,77.77777777777779,0)" xlink:href="#as"/><use transform="matrix(0.04938271604938272,0,0,0.04938271604938272,82.71604938271605,0)" xlink:href="#av"/><use transform="matrix(0.04938271604938272,0,0,0.04938271604938272,93.53086419753086,0)" xlink:href="#au"/></g><path fill="#1071e5" d="M115-3C79 11 28 4 28-45v-112H4v-33h27l15-45h31v45h36v33H77v99c-1 23 16 31 38 25v30" id="aD"/><path fill="#1071e5" d="M185-48c-13 30-37 53-82 52C43 2 14-33 14-96s30-98 90-98c62 0 83 45 84 108H66c0 31 8 55 39 56 18 0 30-7 34-22zm-45-69c5-46-57-63-70-21-2 6-4 13-4 21h74" id="aE"/><path fill="#1071e5" d="M24 0v-54h51V0H24" id="aF"/><path fill="#1071e5" d="M135-194c53 0 70 44 70 98 0 56-19 98-73 100-31 1-45-17-59-34 3 33 2 69 2 105H25l-1-265h48c2 10 0 23 3 31 11-24 29-35 60-35zM114-30c33 0 39-31 40-66 0-38-9-64-40-64-56 0-55 130 0 130" id="aG"/><path fill="#1071e5" d="M135-194c52 0 70 43 70 98 0 56-19 99-73 100-30 1-46-15-58-35L72 0H24l1-261h50v104c11-23 29-37 60-37zM114-30c31 0 40-27 40-66 0-37-7-63-39-63s-41 28-41 65c0 36 8 64 40 64" id="aH"/><path fill="#1071e5" d="M121-226c-27-7-43 5-38 36h38v33H83V0H34v-157H6v-33h28c-9-59 32-81 87-68v32" id="aI"/><g id="l"><use transform="matrix(0.04938271604938272,0,0,0.04938271604938272,0,0)" xlink:href="#az"/><use transform="matrix(0.04938271604938272,0,0,0.04938271604938272,9.876543209876544,0)" xlink:href="#aD"/><use transform="matrix(0.04938271604938272,0,0,0.04938271604938272,15.753086419753087,0)" xlink:href="#aw"/><use transform="matrix(0.04938271604938272,0,0,0.04938271604938272,25.629629629629633,0)" xlink:href="#aD"/><use transform="matrix(0.04938271604938272,0,0,0.04938271604938272,31.506172839506174,0)" xlink:href="#aE"/><use transform="matrix(0.04938271604938272,0,0,0.04938271604938272,41.38271604938272,0)" xlink:href="#az"/><use transform="matrix(0.04938271604938272,0,0,0.04938271604938272,51.25925925925927,0)" xlink:href="#aF"/><use transform="matrix(0.04938271604938272,0,0,0.04938271604938272,56.19753086419754,0)" xlink:href="#aG"/><use transform="matrix(0.04938271604938272,0,0,0.04938271604938272,67.01234567901236,0)" xlink:href="#aH"/><use transform="matrix(0.04938271604938272,0,0,0.04938271604938272,77.82716049382717,0)" xlink:href="#aI"/></g><path fill="#1071e5" d="M240 0l2-218c-23 76-54 145-80 218h-23L58-218 59 0H30v-248h44l77 211c21-75 51-140 76-211h43V0h-30" id="aJ"/><path fill="#1071e5" d="M100-194c63 0 86 42 84 106H49c0 40 14 67 53 68 26 1 43-12 49-29l28 8c-11 28-37 45-77 45C44 4 14-33 15-96c1-61 26-98 85-98zm52 81c6-60-76-77-97-28-3 7-6 17-6 28h103" id="aK"/><path fill="#1071e5" d="M114-163C36-179 61-72 57 0H25l-1-190h30c1 12-1 29 2 39 6-27 23-49 58-41v29" id="aL"/><path fill="#1071e5" d="M177-190C167-65 218 103 67 71c-23-6-38-20-44-43l32-5c15 47 100 32 89-28v-30C133-14 115 1 83 1 29 1 15-40 15-95c0-56 16-97 71-98 29-1 48 16 59 35 1-10 0-23 2-32h30zM94-22c36 0 50-32 50-73 0-42-14-75-50-75-39 0-46 34-46 75s6 73 46 73" id="aM"/><g id="m"><use transform="matrix(0.06172839506172839,0,0,0.06172839506172839,0,0)" xlink:href="#aJ"/><use transform="matrix(0.06172839506172839,0,0,0.06172839506172839,18.456790123456788,0)" xlink:href="#aK"/><use transform="matrix(0.06172839506172839,0,0,0.06172839506172839,30.80246913580247,0)" xlink:href="#aL"/><use transform="matrix(0.06172839506172839,0,0,0.06172839506172839,38.148148148148145,0)" xlink:href="#aM"/><use transform="matrix(0.06172839506172839,0,0,0.06172839506172839,50.49382716049382,0)" xlink:href="#aK"/></g><path fill="#1071e5" d="M59-47c-2 24 18 29 38 22v24C64 9 27 4 27-40v-127H5v-23h24l9-43h21v43h35v23H59v120" id="aN"/><path fill="#1071e5" d="M106-169C34-169 62-67 57 0H25v-261h32l-1 103c12-21 28-36 61-36 89 0 53 116 60 194h-32v-121c2-32-8-49-39-48" id="aO"/><g id="n"><use transform="matrix(0.06172839506172839,0,0,0.06172839506172839,0,0)" xlink:href="#aN"/><use transform="matrix(0.06172839506172839,0,0,0.06172839506172839,6.172839506172839,0)" xlink:href="#aO"/><use transform="matrix(0.06172839506172839,0,0,0.06172839506172839,18.51851851851852,0)" xlink:href="#aK"/></g><path fill="#1071e5" d="M101-234c-31-9-42 10-38 44h38v23H63V0H32v-167H5v-23h27c-7-52 17-82 69-68v24" id="aP"/><path fill="#1071e5" d="M24-231v-30h32v30H24zM24 0v-190h32V0H24" id="aQ"/><path fill="#1071e5" d="M24 0v-261h32V0H24" id="aR"/><path fill="#1071e5" d="M135-143c-3-34-86-38-87 0 15 53 115 12 119 90S17 21 10-45l28-5c4 36 97 45 98 0-10-56-113-15-118-90-4-57 82-63 122-42 12 7 21 19 24 35" id="aS"/><g id="o"><use transform="matrix(0.06172839506172839,0,0,0.06172839506172839,0,0)" xlink:href="#aP"/><use transform="matrix(0.06172839506172839,0,0,0.06172839506172839,6.172839506172839,0)" xlink:href="#aQ"/><use transform="matrix(0.06172839506172839,0,0,0.06172839506172839,11.049382716049383,0)" xlink:href="#aR"/><use transform="matrix(0.06172839506172839,0,0,0.06172839506172839,15.925925925925926,0)" xlink:href="#aK"/><use transform="matrix(0.06172839506172839,0,0,0.06172839506172839,28.271604938271604,0)" xlink:href="#aS"/></g><path fill="#1071e5" d="M84 4C-5 8 30-112 23-190h32v120c0 31 7 50 39 49 72-2 45-101 50-169h31l1 190h-30c-1-10 1-25-2-33-11 22-28 36-60 37" id="aT"/><path fill="#1071e5" d="M117-194c89-4 53 116 60 194h-32v-121c0-31-8-49-39-48C34-167 62-67 57 0H25l-1-190h30c1 10-1 24 2 32 11-22 29-35 61-36" id="aU"/><g id="p"><use transform="matrix(0.06172839506172839,0,0,0.06172839506172839,0,0)" xlink:href="#aT"/><use transform="matrix(0.06172839506172839,0,0,0.06172839506172839,12.345679012345679,0)" xlink:href="#aS"/><use transform="matrix(0.06172839506172839,0,0,0.06172839506172839,23.45679012345679,0)" xlink:href="#aQ"/><use transform="matrix(0.06172839506172839,0,0,0.06172839506172839,28.333333333333336,0)" xlink:href="#aU"/><use transform="matrix(0.06172839506172839,0,0,0.06172839506172839,40.67901234567901,0)" xlink:href="#aM"/></g><path fill="#1071e5" d="M140-251c81 0 123 46 123 126C263-46 219 4 140 4 59 4 17-45 17-125s42-126 123-126zm0 227c63 0 89-41 89-101s-29-99-89-99c-61 0-89 39-89 99S79-25 140-24" id="aV"/><path fill="#1071e5" d="M210-169c-67 3-38 105-44 169h-31v-121c0-29-5-50-35-48C34-165 62-65 56 0H25l-1-190h30c1 10-1 24 2 32 10-44 99-50 107 0 11-21 27-35 58-36 85-2 47 119 55 194h-31v-121c0-29-5-49-35-48" id="aW"/><path fill="#1071e5" d="M16-82v-28h88v28H16" id="aX"/><path fill="#1071e5" d="M100-194c62-1 85 37 85 99 1 63-27 99-86 99S16-35 15-95c0-66 28-99 85-99zM99-20c44 1 53-31 53-75 0-43-8-75-51-75s-53 32-53 75 10 74 51 75" id="aY"/><g id="q"><use transform="matrix(0.06172839506172839,0,0,0.06172839506172839,0,0)" xlink:href="#aV"/><use transform="matrix(0.06172839506172839,0,0,0.06172839506172839,17.28395061728395,0)" xlink:href="#aS"/><use transform="matrix(0.06172839506172839,0,0,0.06172839506172839,28.39506172839506,0)" xlink:href="#aW"/><use transform="matrix(0.06172839506172839,0,0,0.06172839506172839,46.85185185185185,0)" xlink:href="#aQ"/><use transform="matrix(0.06172839506172839,0,0,0.06172839506172839,51.72839506172839,0)" xlink:href="#aT"/><use transform="matrix(0.06172839506172839,0,0,0.06172839506172839,64.07407407407408,0)" xlink:href="#aW"/><use transform="matrix(0.06172839506172839,0,0,0.06172839506172839,82.53086419753086,0)" xlink:href="#aX"/><use transform="matrix(0.06172839506172839,0,0,0.06172839506172839,89.87654320987654,0)" xlink:href="#aN"/><use transform="matrix(0.06172839506172839,0,0,0.06172839506172839,96.04938271604938,0)" xlink:href="#aY"/><use transform="matrix(0.06172839506172839,0,0,0.06172839506172839,108.39506172839506,0)" xlink:href="#aY"/><use transform="matrix(0.06172839506172839,0,0,0.06172839506172839,120.74074074074075,0)" xlink:href="#aR"/></g><path fill="#1071e5" d="M33 0v-38h34V0H33" id="aZ"/><path fill="#1071e5" d="M115-194c55 1 70 41 70 98S169 2 115 4C84 4 66-9 55-30l1 105H24l-1-265h31l2 30c10-21 28-34 59-34zm-8 174c40 0 45-34 45-75s-6-73-45-74c-42 0-51 32-51 76 0 43 10 73 51 73" id="ba"/><path fill="#1071e5" d="M179-190L93 31C79 59 56 82 12 73V49c39 6 53-20 64-50L1-190h34L92-34l54-156h33" id="bb"/><g id="r"><use transform="matrix(0.06172839506172839,0,0,0.06172839506172839,0,0)" xlink:href="#aY"/><use transform="matrix(0.06172839506172839,0,0,0.06172839506172839,12.345679012345679,0)" xlink:href="#aS"/><use transform="matrix(0.06172839506172839,0,0,0.06172839506172839,23.45679012345679,0)" xlink:href="#aW"/><use transform="matrix(0.06172839506172839,0,0,0.06172839506172839,41.91358024691358,0)" xlink:href="#aX"/><use transform="matrix(0.06172839506172839,0,0,0.06172839506172839,49.25925925925926,0)" xlink:href="#aN"/><use transform="matrix(0.06172839506172839,0,0,0.06172839506172839,55.4320987654321,0)" xlink:href="#aK"/><use transform="matrix(0.06172839506172839,0,0,0.06172839506172839,67.77777777777779,0)" xlink:href="#aS"/><use transform="matrix(0.06172839506172839,0,0,0.06172839506172839,78.8888888888889,0)" xlink:href="#aN"/><use transform="matrix(0.06172839506172839,0,0,0.06172839506172839,85.06172839506173,0)" xlink:href="#aZ"/><use transform="matrix(0.06172839506172839,0,0,0.06172839506172839,91.23456790123457,0)" xlink:href="#ba"/><use transform="matrix(0.06172839506172839,0,0,0.06172839506172839,103.58024691358025,0)" xlink:href="#bb"/></g><path fill="#1071e5" d="M96-169c-40 0-48 33-48 73s9 75 48 75c24 0 41-14 43-38l32 2c-6 37-31 61-74 61-59 0-76-41-82-99-10-93 101-131 147-64 4 7 5 14 7 22l-32 3c-4-21-16-35-41-35" id="bc"/><g id="s"><use transform="matrix(0.06172839506172839,0,0,0.06172839506172839,0,0)" xlink:href="#aY"/><use transform="matrix(0.06172839506172839,0,0,0.06172839506172839,12.345679012345679,0)" xlink:href="#aS"/><use transform="matrix(0.06172839506172839,0,0,0.06172839506172839,23.45679012345679,0)" xlink:href="#aW"/><use transform="matrix(0.06172839506172839,0,0,0.06172839506172839,41.91358024691358,0)" xlink:href="#aX"/><use transform="matrix(0.06172839506172839,0,0,0.06172839506172839,49.25925925925926,0)" xlink:href="#bc"/><use transform="matrix(0.06172839506172839,0,0,0.06172839506172839,60.37037037037037,0)" xlink:href="#aY"/><use transform="matrix(0.06172839506172839,0,0,0.06172839506172839,72.71604938271605,0)" xlink:href="#aY"/><use transform="matrix(0.06172839506172839,0,0,0.06172839506172839,85.06172839506173,0)" xlink:href="#aL"/><use transform="matrix(0.06172839506172839,0,0,0.06172839506172839,92.40740740740742,0)" xlink:href="#aX"/><use transform="matrix(0.06172839506172839,0,0,0.06172839506172839,99.7530864197531,0)" xlink:href="#aM"/><use transform="matrix(0.06172839506172839,0,0,0.06172839506172839,112.09876543209879,0)" xlink:href="#aK"/><use transform="matrix(0.06172839506172839,0,0,0.06172839506172839,124.44444444444447,0)" xlink:href="#aN"/><use transform="matrix(0.06172839506172839,0,0,0.06172839506172839,130.61728395061732,0)" xlink:href="#aZ"/><use transform="matrix(0.06172839506172839,0,0,0.06172839506172839,136.79012345679016,0)" xlink:href="#ba"/><use transform="matrix(0.06172839506172839,0,0,0.06172839506172839,149.13580246913583,0)" xlink:href="#bb"/></g><path fill="#1071e5" d="M190-63c-7 42-38 67-86 67-59 0-84-38-90-98-12-110 154-137 174-36l-49 2c-2-19-15-32-35-32-30 0-35 28-38 64-6 74 65 87 74 30" id="bd"/><path fill="#1071e5" d="M123 10C108 53 80 86 19 72V37c35 8 53-11 59-39L3-190h52l48 148c12-52 28-100 44-148h51" id="be"/><g id="t"><use transform="matrix(0.04938271604938272,0,0,0.04938271604938272,0,0)" xlink:href="#bd"/><use transform="matrix(0.04938271604938272,0,0,0.04938271604938272,9.876543209876544,0)" xlink:href="#as"/><use transform="matrix(0.04938271604938272,0,0,0.04938271604938272,14.814814814814817,0)" xlink:href="#aD"/><use transform="matrix(0.04938271604938272,0,0,0.04938271604938272,20.69135802469136,0)" xlink:href="#be"/></g><g id="u"><use transform="matrix(0.04938271604938272,0,0,0.04938271604938272,0,0)" xlink:href="#bd"/><use transform="matrix(0.04938271604938272,0,0,0.04938271604938272,9.876543209876544,0)" xlink:href="#aB"/><use transform="matrix(0.04938271604938272,0,0,0.04938271604938272,20.69135802469136,0)" xlink:href="#aB"/><use transform="matrix(0.04938271604938272,0,0,0.04938271604938272,31.506172839506174,0)" xlink:href="#at"/><use transform="matrix(0.04938271604938272,0,0,0.04938271604938272,38.41975308641976,0)" xlink:href="#aC"/><use transform="matrix(0.04938271604938272,0,0,0.04938271604938272,49.23456790123458,0)" xlink:href="#as"/><use transform="matrix(0.04938271604938272,0,0,0.04938271604938272,54.17283950617284,0)" xlink:href="#av"/><use transform="matrix(0.04938271604938272,0,0,0.04938271604938272,64.98765432098766,0)" xlink:href="#aw"/><use transform="matrix(0.04938271604938272,0,0,0.04938271604938272,74.8641975308642,0)" xlink:href="#aD"/><use transform="matrix(0.04938271604938272,0,0,0.04938271604938272,80.74074074074075,0)" xlink:href="#aE"/><use transform="matrix(0.04938271604938272,0,0,0.04938271604938272,90.61728395061729,0)" xlink:href="#az"/></g><path fill="#1071e5" d="M220-157c-53 9-28 100-34 157h-49v-107c1-27-5-49-29-50C55-147 81-57 75 0H25l-1-190h47c2 12-1 28 3 38 10-53 101-56 108 0 13-22 24-43 59-42 82 1 51 116 57 194h-49v-107c-1-25-5-48-29-50" id="bf"/><g id="v"><use transform="matrix(0.04938271604938272,0,0,0.04938271604938272,0,0)" xlink:href="#aI"/><use transform="matrix(0.04938271604938272,0,0,0.04938271604938272,5.8765432098765435,0)" xlink:href="#at"/><use transform="matrix(0.04938271604938272,0,0,0.04938271604938272,12.790123456790125,0)" xlink:href="#aB"/><use transform="matrix(0.04938271604938272,0,0,0.04938271604938272,23.604938271604937,0)" xlink:href="#bf"/></g><path fill="#1071e5" d="M140-251c80 0 125 45 125 126S219 4 139 4C58 4 15-44 15-125s44-126 125-126zm-1 214c52 0 73-35 73-88 0-50-21-86-72-86-52 0-73 35-73 86s22 88 72 88" id="bg"/><g id="w"><use transform="matrix(0.04938271604938272,0,0,0.04938271604938272,0,0)" xlink:href="#bg"/><use transform="matrix(0.04938271604938272,0,0,0.04938271604938272,13.827160493827162,0)" xlink:href="#ar"/><use transform="matrix(0.04938271604938272,0,0,0.04938271604938272,23.703703703703706,0)" xlink:href="#aE"/><use transform="matrix(0.04938271604938272,0,0,0.04938271604938272,33.580246913580254,0)" xlink:href="#at"/><use transform="matrix(0.04938271604938272,0,0,0.04938271604938272,40.49382716049384,0)" xlink:href="#aG"/><use transform="matrix(0.04938271604938272,0,0,0.04938271604938272,51.30864197530866,0)" xlink:href="#aw"/><use transform="matrix(0.04938271604938272,0,0,0.04938271604938272,61.185185185185205,0)" xlink:href="#az"/><use transform="matrix(0.04938271604938272,0,0,0.04938271604938272,71.06172839506175,0)" xlink:href="#az"/></g><path fill="#1071e5" d="M199 0l-22-63H83L61 0H9l90-248h61L250 0h-51zm-33-102l-36-108c-10 38-24 72-36 108h72" id="bh"/><path fill="#1071e5" d="M24-248c93 1 206-16 204 79-1 75-69 88-152 82V0H24v-248zm52 121c47 0 100 7 100-41 0-47-54-39-100-39v80" id="bi"/><path fill="#1071e5" d="M24 0v-248h52V0H24" id="bj"/><g id="x"><use transform="matrix(0.04938271604938272,0,0,0.04938271604938272,0,0)" xlink:href="#bh"/><use transform="matrix(0.04938271604938272,0,0,0.04938271604938272,12.790123456790125,0)" xlink:href="#bi"/><use transform="matrix(0.04938271604938272,0,0,0.04938271604938272,24.641975308641978,0)" xlink:href="#bj"/></g><path fill="#979ea8" d="M233-177c-1 41-23 64-60 70L243 0h-38l-65-103H63V0H30v-248c88 3 205-21 203 71zM63-129c60-2 137 13 137-47 0-61-80-42-137-45v92" id="bk"/><g id="y"><use transform="matrix(0.06172839506172839,0,0,0.06172839506172839,0,0)" xlink:href="#X"/><use transform="matrix(0.06172839506172839,0,0,0.06172839506172839,17.28395061728395,0)" xlink:href="#Y"/><use transform="matrix(0.06172839506172839,0,0,0.06172839506172839,32.09876543209876,0)" xlink:href="#bk"/><use transform="matrix(0.06172839506172839,0,0,0.06172839506172839,48.08641975308641,0)" xlink:href="#Z"/></g><path fill="#979ea8" d="M100-194c63 0 86 42 84 106H49c0 40 14 67 53 68 26 1 43-12 49-29l28 8c-11 28-37 45-77 45C44 4 14-33 15-96c1-61 26-98 85-98zm52 81c6-60-76-77-97-28-3 7-6 17-6 28h103" id="bl"/><path fill="#979ea8" d="M114-163C36-179 61-72 57 0H25l-1-190h30c1 12-1 29 2 39 6-27 23-49 58-41v29" id="bm"/><path fill="#979ea8" d="M108 0H70L1-190h34L89-25l56-165h34" id="bn"/><g id="z"><use transform="matrix(0.06172839506172839,0,0,0.06172839506172839,0,0)" xlink:href="#Y"/><use transform="matrix(0.06172839506172839,0,0,0.06172839506172839,14.814814814814813,0)" xlink:href="#bl"/><use transform="matrix(0.06172839506172839,0,0,0.06172839506172839,27.160493827160494,0)" xlink:href="#bm"/><use transform="matrix(0.06172839506172839,0,0,0.06172839506172839,34.50617283950617,0)" xlink:href="#bn"/><use transform="matrix(0.06172839506172839,0,0,0.06172839506172839,45.61728395061728,0)" xlink:href="#bl"/><use transform="matrix(0.06172839506172839,0,0,0.06172839506172839,57.962962962962955,0)" xlink:href="#bm"/></g><path fill="#1071e5" d="M85-194c31 0 48 13 60 33l-1-100h32l1 261h-30c-2-10 0-23-3-31C134-8 116 4 85 4 32 4 16-35 15-94c0-66 23-100 70-100zm9 24c-40 0-46 34-46 75 0 40 6 74 45 74 42 0 51-32 51-76 0-42-9-74-50-73" id="bo"/><g id="A"><use transform="matrix(0.06172839506172839,0,0,0.06172839506172839,0,0)" xlink:href="#aY"/><use transform="matrix(0.06172839506172839,0,0,0.06172839506172839,12.345679012345679,0)" xlink:href="#aS"/><use transform="matrix(0.06172839506172839,0,0,0.06172839506172839,23.45679012345679,0)" xlink:href="#aW"/><use transform="matrix(0.06172839506172839,0,0,0.06172839506172839,41.91358024691358,0)" xlink:href="#aX"/><use transform="matrix(0.06172839506172839,0,0,0.06172839506172839,49.25925925925926,0)" xlink:href="#aM"/><use transform="matrix(0.06172839506172839,0,0,0.06172839506172839,61.60493827160494,0)" xlink:href="#aL"/><use transform="matrix(0.06172839506172839,0,0,0.06172839506172839,68.95061728395062,0)" xlink:href="#aY"/><use transform="matrix(0.06172839506172839,0,0,0.06172839506172839,81.2962962962963,0)" xlink:href="#aT"/><use transform="matrix(0.06172839506172839,0,0,0.06172839506172839,93.64197530864199,0)" xlink:href="#aU"/><use transform="matrix(0.06172839506172839,0,0,0.06172839506172839,105.98765432098767,0)" xlink:href="#bo"/><use transform="matrix(0.06172839506172839,0,0,0.06172839506172839,118.33333333333336,0)" xlink:href="#aZ"/><use transform="matrix(0.06172839506172839,0,0,0.06172839506172839,124.50617283950619,0)" xlink:href="#ba"/><use transform="matrix(0.06172839506172839,0,0,0.06172839506172839,136.85185185185188,0)" xlink:href="#bb"/></g><g id="B"><use transform="matrix(0.04938271604938272,0,0,0.04938271604938272,0,0)" xlink:href="#au"/><use transform="matrix(0.04938271604938272,0,0,0.04938271604938272,10.814814814814815,0)" xlink:href="#at"/><use transform="matrix(0.04938271604938272,0,0,0.04938271604938272,17.728395061728396,0)" xlink:href="#aB"/><use transform="matrix(0.04938271604938272,0,0,0.04938271604938272,28.543209876543205,0)" xlink:href="#aA"/><use transform="matrix(0.04938271604938272,0,0,0.04938271604938272,39.358024691358025,0)" xlink:href="#av"/><use transform="matrix(0.04938271604938272,0,0,0.04938271604938272,50.17283950617284,0)" xlink:href="#aC"/></g><path fill="#1071e5" d="M114-157C55-157 80-60 75 0H25v-261h50l-1 109c12-26 28-41 61-42 86-1 58 113 63 194h-50c-7-57 23-157-34-157" id="bp"/><g id="C"><use transform="matrix(0.04938271604938272,0,0,0.04938271604938272,0,0)" xlink:href="#aD"/><use transform="matrix(0.04938271604938272,0,0,0.04938271604938272,5.8765432098765435,0)" xlink:href="#at"/><use transform="matrix(0.04938271604938272,0,0,0.04938271604938272,12.790123456790125,0)" xlink:href="#aA"/><use transform="matrix(0.04938271604938272,0,0,0.04938271604938272,23.604938271604937,0)" xlink:href="#aD"/><use transform="matrix(0.04938271604938272,0,0,0.04938271604938272,29.481481481481477,0)" xlink:href="#bp"/></g><g id="D"><use transform="matrix(0.04938271604938272,0,0,0.04938271604938272,0,0)" xlink:href="#aC"/><use transform="matrix(0.04938271604938272,0,0,0.04938271604938272,10.814814814814815,0)" xlink:href="#as"/><use transform="matrix(0.04938271604938272,0,0,0.04938271604938272,15.753086419753087,0)" xlink:href="#az"/><use transform="matrix(0.04938271604938272,0,0,0.04938271604938272,25.629629629629633,0)" xlink:href="#aD"/><use transform="matrix(0.04938271604938272,0,0,0.04938271604938272,31.506172839506174,0)" xlink:href="#aw"/><use transform="matrix(0.04938271604938272,0,0,0.04938271604938272,41.38271604938272,0)" xlink:href="#av"/><use transform="matrix(0.04938271604938272,0,0,0.04938271604938272,52.19753086419754,0)" xlink:href="#bd"/><use transform="matrix(0.04938271604938272,0,0,0.04938271604938272,62.074074074074076,0)" xlink:href="#aE"/></g><path fill="#1071e5" d="M108 0H70L1-190h34L89-25l56-165h34" id="bq"/><g id="E"><use transform="matrix(0.06172839506172839,0,0,0.06172839506172839,0,0)" xlink:href="#aZ"/><use transform="matrix(0.06172839506172839,0,0,0.06172839506172839,6.172839506172839,0)" xlink:href="#bc"/><use transform="matrix(0.06172839506172839,0,0,0.06172839506172839,17.28395061728395,0)" xlink:href="#aS"/><use transform="matrix(0.06172839506172839,0,0,0.06172839506172839,28.39506172839506,0)" xlink:href="#bq"/></g><path fill="#1071e5" d="M141-36C126-15 110 5 73 4 37 3 15-17 15-53c-1-64 63-63 125-63 3-35-9-54-41-54-24 1-41 7-42 31l-33-3c5-37 33-52 76-52 45 0 72 20 72 64v82c-1 20 7 32 28 27v20c-31 9-61-2-59-35zM48-53c0 20 12 33 32 33 41-3 63-29 60-74-43 2-92-5-92 41" id="br"/><g id="F"><use transform="matrix(0.06172839506172839,0,0,0.06172839506172839,0,0)" xlink:href="#aK"/><use transform="matrix(0.06172839506172839,0,0,0.06172839506172839,12.345679012345679,0)" xlink:href="#bq"/><use transform="matrix(0.06172839506172839,0,0,0.06172839506172839,23.45679012345679,0)" xlink:href="#br"/><use transform="matrix(0.06172839506172839,0,0,0.06172839506172839,35.80246913580247,0)" xlink:href="#aR"/><use transform="matrix(0.06172839506172839,0,0,0.06172839506172839,40.67901234567901,0)" xlink:href="#aT"/><use transform="matrix(0.06172839506172839,0,0,0.06172839506172839,53.02469135802469,0)" xlink:href="#br"/><use transform="matrix(0.06172839506172839,0,0,0.06172839506172839,65.37037037037037,0)" xlink:href="#aN"/><use transform="matrix(0.06172839506172839,0,0,0.06172839506172839,71.5432098765432,0)" xlink:href="#aQ"/><use transform="matrix(0.06172839506172839,0,0,0.06172839506172839,76.41975308641975,0)" xlink:href="#aY"/><use transform="matrix(0.06172839506172839,0,0,0.06172839506172839,88.76543209876543,0)" xlink:href="#aU"/></g><path fill="#282c33" d="M240 0l2-218c-23 76-54 145-80 218h-23L58-218 59 0H30v-248h44l77 211c21-75 51-140 76-211h43V0h-30" id="bs"/><path fill="#282c33" d="M141-36C126-15 110 5 73 4 37 3 15-17 15-53c-1-64 63-63 125-63 3-35-9-54-41-54-24 1-41 7-42 31l-33-3c5-37 33-52 76-52 45 0 72 20 72 64v82c-1 20 7 32 28 27v20c-31 9-61-2-59-35zM48-53c0 20 12 33 32 33 41-3 63-29 60-74-43 2-92-5-92 41" id="bt"/><path fill="#282c33" d="M115-194c55 1 70 41 70 98S169 2 115 4C84 4 66-9 55-30l1 105H24l-1-265h31l2 30c10-21 28-34 59-34zm-8 174c40 0 45-34 45-75s-6-73-45-74c-42 0-51 32-51 76 0 43 10 73 51 73" id="bu"/><g id="G"><use transform="matrix(0.06172839506172839,0,0,0.06172839506172839,0,0)" xlink:href="#bs"/><use transform="matrix(0.06172839506172839,0,0,0.06172839506172839,18.456790123456788,0)" xlink:href="#bt"/><use transform="matrix(0.06172839506172839,0,0,0.06172839506172839,30.80246913580247,0)" xlink:href="#bu"/></g><path fill="#282c33" d="M30-248c87 1 191-15 191 75 0 78-77 80-158 76V0H30v-248zm33 125c57 0 124 11 124-50 0-59-68-47-124-48v98" id="bv"/><path fill="#282c33" d="M24-231v-30h32v30H24zM24 0v-190h32V0H24" id="bw"/><path fill="#282c33" d="M114-163C36-179 61-72 57 0H25l-1-190h30c1 12-1 29 2 39 6-27 23-49 58-41v29" id="bx"/><g id="H"><use transform="matrix(0.06172839506172839,0,0,0.06172839506172839,0,0)" xlink:href="#bv"/><use transform="matrix(0.06172839506172839,0,0,0.06172839506172839,14.814814814814813,0)" xlink:href="#bt"/><use transform="matrix(0.06172839506172839,0,0,0.06172839506172839,27.160493827160494,0)" xlink:href="#bw"/><use transform="matrix(0.06172839506172839,0,0,0.06172839506172839,32.03703703703704,0)" xlink:href="#bx"/></g><path fill="#282c33" d="M100-194c62-1 85 37 85 99 1 63-27 99-86 99S16-35 15-95c0-66 28-99 85-99zM99-20c44 1 53-31 53-75 0-43-8-75-51-75s-53 32-53 75 10 74 51 75" id="by"/><path fill="#282c33" d="M101-234c-31-9-42 10-38 44h38v23H63V0H32v-167H5v-23h27c-7-52 17-82 69-68v24" id="bz"/><g id="I"><use transform="matrix(0.06172839506172839,0,0,0.06172839506172839,0,0)" xlink:href="#by"/><use transform="matrix(0.06172839506172839,0,0,0.06172839506172839,12.345679012345679,0)" xlink:href="#bz"/></g><path fill="#282c33" d="M96-169c-40 0-48 33-48 73s9 75 48 75c24 0 41-14 43-38l32 2c-6 37-31 61-74 61-59 0-76-41-82-99-10-93 101-131 147-64 4 7 5 14 7 22l-32 3c-4-21-16-35-41-35" id="bA"/><path fill="#282c33" d="M85-194c31 0 48 13 60 33l-1-100h32l1 261h-30c-2-10 0-23-3-31C134-8 116 4 85 4 32 4 16-35 15-94c0-66 23-100 70-100zm9 24c-40 0-46 34-46 75 0 40 6 74 45 74 42 0 51-32 51-76 0-42-9-74-50-73" id="bB"/><path fill="#282c33" d="M117-194c89-4 53 116 60 194h-32v-121c0-31-8-49-39-48C34-167 62-67 57 0H25l-1-190h30c1 10-1 24 2 32 11-22 29-35 61-36" id="bC"/><path fill="#282c33" d="M59-47c-2 24 18 29 38 22v24C64 9 27 4 27-40v-127H5v-23h24l9-43h21v43h35v23H59v120" id="bD"/><path fill="#282c33" d="M100-194c63 0 86 42 84 106H49c0 40 14 67 53 68 26 1 43-12 49-29l28 8c-11 28-37 45-77 45C44 4 14-33 15-96c1-61 26-98 85-98zm52 81c6-60-76-77-97-28-3 7-6 17-6 28h103" id="bE"/><path fill="#282c33" d="M135-143c-3-34-86-38-87 0 15 53 115 12 119 90S17 21 10-45l28-5c4 36 97 45 98 0-10-56-113-15-118-90-4-57 82-63 122-42 12 7 21 19 24 35" id="bF"/><g id="J"><use transform="matrix(0.06172839506172839,0,0,0.06172839506172839,0,0)" xlink:href="#bA"/><use transform="matrix(0.06172839506172839,0,0,0.06172839506172839,11.11111111111111,0)" xlink:href="#by"/><use transform="matrix(0.06172839506172839,0,0,0.06172839506172839,23.45679012345679,0)" xlink:href="#by"/><use transform="matrix(0.06172839506172839,0,0,0.06172839506172839,35.80246913580247,0)" xlink:href="#bx"/><use transform="matrix(0.06172839506172839,0,0,0.06172839506172839,43.148148148148145,0)" xlink:href="#bB"/><use transform="matrix(0.06172839506172839,0,0,0.06172839506172839,55.49382716049382,0)" xlink:href="#bw"/><use transform="matrix(0.06172839506172839,0,0,0.06172839506172839,60.37037037037037,0)" xlink:href="#bC"/><use transform="matrix(0.06172839506172839,0,0,0.06172839506172839,72.71604938271605,0)" xlink:href="#bt"/><use transform="matrix(0.06172839506172839,0,0,0.06172839506172839,85.06172839506173,0)" xlink:href="#bD"/><use transform="matrix(0.06172839506172839,0,0,0.06172839506172839,91.23456790123457,0)" xlink:href="#bE"/><use transform="matrix(0.06172839506172839,0,0,0.06172839506172839,103.58024691358025,0)" xlink:href="#bF"/></g><path fill="#282c33" d="M233-177c-1 41-23 64-60 70L243 0h-38l-65-103H63V0H30v-248c88 3 205-21 203 71zM63-129c60-2 137 13 137-47 0-61-80-42-137-45v92" id="bG"/><path fill="#282c33" d="M84 4C-5 8 30-112 23-190h32v120c0 31 7 50 39 49 72-2 45-101 50-169h31l1 190h-30c-1-10 1-25-2-33-11 22-28 36-60 37" id="bH"/><g id="K"><use transform="matrix(0.06172839506172839,0,0,0.06172839506172839,0,0)" xlink:href="#bG"/><use transform="matrix(0.06172839506172839,0,0,0.06172839506172839,15.987654320987653,0)" xlink:href="#by"/><use transform="matrix(0.06172839506172839,0,0,0.06172839506172839,28.333333333333332,0)" xlink:href="#bH"/><use transform="matrix(0.06172839506172839,0,0,0.06172839506172839,40.67901234567901,0)" xlink:href="#bD"/><use transform="matrix(0.06172839506172839,0,0,0.06172839506172839,46.851851851851855,0)" xlink:href="#bE"/></g><path fill="#282c33" d="M30-248c118-7 216 8 213 122C240-48 200 0 122 0H30v-248zM63-27c89 8 146-16 146-99s-60-101-146-95v194" id="bI"/><g id="L"><use transform="matrix(0.06172839506172839,0,0,0.06172839506172839,0,0)" xlink:href="#bI"/><use transform="matrix(0.06172839506172839,0,0,0.06172839506172839,15.987654320987653,0)" xlink:href="#bw"/><use transform="matrix(0.06172839506172839,0,0,0.06172839506172839,20.864197530864196,0)" xlink:href="#bF"/><use transform="matrix(0.06172839506172839,0,0,0.06172839506172839,31.975308641975307,0)" xlink:href="#bD"/><use transform="matrix(0.06172839506172839,0,0,0.06172839506172839,38.148148148148145,0)" xlink:href="#bt"/><use transform="matrix(0.06172839506172839,0,0,0.06172839506172839,50.49382716049382,0)" xlink:href="#bC"/><use transform="matrix(0.06172839506172839,0,0,0.06172839506172839,62.8395061728395,0)" xlink:href="#bA"/><use transform="matrix(0.06172839506172839,0,0,0.06172839506172839,73.9506172839506,0)" xlink:href="#bE"/></g></defs></g></svg>