<svg xmlns="http://www.w3.org/2000/svg" xmlns:xlink="http://www.w3.org/1999/xlink" xmlns:lucid="lucid" width="1063.25" height="723.12"><g transform="translate(37.333333333333286 -107.66666666670548)" lucid:page-tab-id="0_0"><path d="M72 255.33a6 6 0 0 1 6-6h178.67a6 6 0 0 1 6 6V434a6 6 0 0 1-6 6H78a6 6 0 0 1-6-6z" fill="#fff" fill-opacity="0"/><path d="M87.04 249.4h9.98m5 0h9.96m5 0h9.97m5-.02h9.97m5 0h9.97m4.97 0h9.98m5 0l9.97-.02m5 0h9.97m4.98 0h9.97m5 0l9.97-.02m5 0h9.97m4.98 0h5l.93.07.92.23.87.36.8.48.7.6.62.73.5.8.35.88.22.9v5m0 5v9.97m0 5v9.97m0 5v9.97m.02 4.97v9.98m0 5v9.97m0 5v9.97m0 4.98l.02 9.97m0 5v9.97m0 5v9.97m0 4.98l.02 9.97m0 5V424m0 5V434l-.07.94-.23.9-.36.88-.48.8-.6.72-.73.6-.8.5-.88.37-.9.23h-5m-5 0h-9.97m-5 0h-9.97m-5 0l-9.97.02m-4.97 0h-9.98m-5 0h-9.97m-5 0l-9.97.02m-4.98 0h-9.97m-5 0h-9.97m-5 0h-9.97m-4.98.02h-9.97m-5 0H88m-5 0H78l-.94-.07-.9-.22-.88-.35-.8-.5-.72-.6-.6-.72-.5-.8-.37-.88-.23-.9v-5m0-5V415m0-5v-9.96m0-5l-.02-9.97m0-5v-9.97m0-5v-9.97m0-4.97l-.02-9.98m0-5v-9.97m0-5v-9.97m0-4.98v-9.97m-.02-5v-9.97m0-5v-9.97m0-4.98v-5l.07-.93.22-.92.35-.87.5-.8.6-.7.72-.62.8-.5.88-.35.9-.22h5" stroke="#5a6c86" fill="none"/><use xlink:href="#a" transform="matrix(1,0,0,1,72.00000000000001,269.33333333333337) translate(75.5 14.4)"/><path d="M568.96 494.67a6 6 0 0 1 6-6h134.66a6 6 0 0 1 6 6v124.2a6 6 0 0 1-6 6H574.96a6 6 0 0 1-6-6z" fill="#fff" fill-opacity="0"/><path d="M584.06 488.74h10.05m5.03 0l10.05-.02m5.02 0h10.04m5.02 0h10.05m5.03-.02h10.05m5.02 0h10.04m5.03 0l10.04-.02m5.03 0h10.05m5.02 0h5.02l.94.06.92.22.87.36.8.5.72.6.6.72.5.8.36.87.22.93v5.2m0 5.23v10.43m.02 5.2v10.43m0 5.2v10.44m0 5.22l.02 10.42m0 5.2v10.44m0 5.2v10.44m0 5.22l.02 10.43m0 5.2v5.22l-.07.94-.22.93-.36.87-.5.8-.6.72-.72.6-.8.5-.87.36-.92.22h-5.02m-5.02 0h-10.05m-5.02 0l-10.04.02m-5.02 0h-10.04m-5.02 0l-10.05.02m-5.02 0H630.2m-5.02 0h-10.04m-5.03 0l-10.03.02m-5.02 0H585m-5.02 0h-5.02l-.94-.06-.92-.22-.87-.36-.8-.5-.72-.6-.6-.72-.5-.8-.35-.87-.22-.92v-5.2m0-5.22v-10.42m0-5.22L569 583.3m0-5.2v-10.43m0-5.22v-10.42m0-5.22l-.02-10.42m0-5.2v-10.44m0-5.22l-.02-10.42m0-5.22v-5.2l.07-.95.22-.92.36-.86.5-.8.6-.72.73-.6.8-.5.87-.36.92-.22h5.02" stroke="#5a6c86" fill="none"/><use xlink:href="#a" transform="matrix(1,0,0,1,568.9568940845835,508.6666666666667) translate(53.5 14.4)"/><path d="M345.33 312.96a6 6 0 0 1 6-6h148a6 6 0 0 1 6 6v108a6 6 0 0 1-6 6h-148a6 6 0 0 1-6-6z" stroke="#1071e5" fill="#fff"/><use xlink:href="#b" transform="matrix(1,0,0,1,357.33333333337214,318.9601070202258) translate(19.296296296296298 53.77777777777778)"/><path d="M845.9 510.87a6 6 0 0 1 6-6h148a6 6 0 0 1 6 6v108a6 6 0 0 1-6 6h-148a6 6 0 0 1-6-6z" stroke="#cc4e00" fill="#fff"/><use xlink:href="#c" transform="matrix(1,0,0,1,857.9137881691283,516.8741559324792) translate(8.185185185185183 53.77777777777778)"/><path d="M449.8 178.47h-8.47v-3.4h8.48c8.17 0 12.1-3.6 12.1-11.03 0-6.35-3.7-10.36-11.05-11.84-.8-.15-1.28-.8-1.36-1.57-.4-6.15-3.93-8.38-6.8-8.38-2.1.05-3.85.96-5.13 2.64-.56.7-1.6.85-2.4.3-.24-.2-.4-.46-.56-.77-1.1-3.15-2.63-5.6-5.03-7.87-5.36-5.44-13.04-6.9-20-3.86-6.32 2.9-10.16 8.73-10.48 15.74 0 .72.07 1.38.15 2.1.16.85-.4 1.66-1.28 1.87-3.36.87-9.2 3.4-9.2 11.5v.9c.32 5.95 5.36 10.2 12 10.2h8.56v3.42h-8.56c-8.48 0-14.96-5.7-15.44-13.52v-1.06c-.24-6.7 4-12.55 10.4-14.38v-1.07c.24-11.7 9.92-21 21.6-20.73 5.76.15 10.64 2.23 14.64 6.4 2.08 2.03 3.6 4.1 4.8 6.8 1.76-1.32 3.68-1.98 5.84-1.98 4.57 0 9.3 3.2 10.25 10.2 8 2.1 12.48 7.37 12.48 14.94 0 9.3-5.52 14.43-15.52 14.43zm-18.07 0h-12.8v-3.4h12.8zM436.5 205.67c-.47 0-.86-.17-1.18-.5l-9.6-9.6 2.4-2.4 8.38 8.37 8.38-8.38 2.4 2.4-9.57 9.6c-.3.34-.72.5-1.2.5z" stroke="#fff" stroke-opacity="0" fill="#232f3e"/><path d="M434.8 175.16h3.4v27.2h-3.4v-27.2zM422.56 160.38l-8.38-8.4-8.4 8.4-2.38-2.42 9.57-9.6c.67-.65 1.72-.65 2.4 0l9.58 9.6z" stroke="#fff" stroke-opacity="0" fill="#232f3e"/><path d="M412.47 149.56h3.4v28.8h-3.4v-28.8z" stroke="#fff" stroke-opacity="0" fill="#232f3e"/><path d="M449.74 178.4H400.8c-8.48 0-14.95-5.68-15.43-13.5v-1.06c-.24-6.75 3.92-12.53 10.4-14.4v-1.07-.8c.55-8.13 5.2-14.73 12.55-18.08 8.23-3.56 17.27-1.83 23.6 4.56 2.15 2.08 3.6 4.16 4.8 6.8 1.74-1.32 3.66-1.98 5.9-1.98 4.48 0 9.2 3.2 10.16 10.25 8.16 2.03 12.55 7.3 12.55 14.86-.08 9.28-5.6 14.4-15.6 14.4zm-32.95-47.23c-2.64 0-4.88.45-7.28 1.47-6.32 2.94-10.16 8.78-10.4 15.73 0 .76 0 1.42.16 2.13.08.86-.48 1.67-1.28 1.88-3.44.86-9.27 3.4-9.27 11.46v.92c.32 5.93 5.43 10.2 12.07 10.2h48.94c8.16 0 12.07-3.6 12.07-11.02 0-6.34-3.66-10.35-11.02-11.82-.8-.15-1.28-.8-1.36-1.57-.32-6.2-3.92-8.37-6.8-8.37-2.08.05-3.84.96-5.1 2.64-.57.7-1.6.86-2.4.3-.25-.2-.4-.46-.57-.76-1.04-3.1-2.56-5.53-4.96-7.87-3.53-3.56-7.77-5.33-12.8-5.33z" stroke="#fff" stroke-opacity="0" fill="#fff" fill-opacity="0"/><use xlink:href="#d" transform="matrix(1,0,0,1,355.33333333337214,214.66666666670548) translate(34.2283950617284 17.77777777777778)"/><path d="M425.33 178.97V290.1" stroke="#1071e5" fill="none"/><path d="M425.83 178.98h-1v-.5h1z" stroke="#1071e5" stroke-width=".05" fill="#1071e5"/><path d="M425.33 304.88l-4.63-14.27h9.27z" stroke="#1071e5" fill="#1071e5"/><path d="M364 524.87a6 6 0 0 1 6-6h110.67a6 6 0 0 1 6 6v86c-20.5-15.36-33.25-15.36-40.97-15.36-12.27 0-28.6 15.37-40.85 15.37-7.6 0-20.5 0-40.85-15.36z" stroke="#1071e5" fill="#fff"/><use xlink:href="#e" transform="matrix(1,0,0,1,369.0000000000388,523.8741559324792) translate(21.962962962962962 38.71527777777778)"/><path d="M425.33 427.92v74.1" stroke="#1071e5" fill="none"/><path d="M425.83 427.94h-1v-.52h1z" stroke="#1071e5" stroke-width=".05" fill="#1071e5"/><path d="M425.33 516.8l-4.63-14.27h9.27z" stroke="#1071e5" fill="#1071e5"/><path d="M645.95 565.5H487.63v-1h158.32zm183.12-.13l-142.44.02v-1l142.44-.03z" stroke="#3a414a" stroke-width=".05" fill="#3a414a"/><path d="M487.64 565.5h-.5v-1h.5z" fill="#3a414a"/><path d="M487.67 565.52h-.57v-1.05h.57zm-.52-1v.95h.47v-.95z" stroke="#3a414a" stroke-width=".05" fill="#3a414a"/><path d="M843.83 564.87l-14.26 4.64v-9.26z" fill="#3a414a"/><path d="M845.45 564.87l-16.38 5.33v-10.65zm-15.38 3.95l12.14-3.95-12.13-3.94z" stroke="#3a414a" stroke-width=".05" fill="#3a414a"/><use xlink:href="#f" transform="matrix(1,0,0,1,645.9495361281012,551.6000236083505) translate(0 17.77777777777778)"/><path d="M950.4 178.93h-8.5v-3.4h8.5c8.15 0 12.07-3.6 12.07-11.03 0-6.35-3.68-10.36-11.04-11.83-.8-.16-1.28-.82-1.36-1.58-.4-6.15-3.92-8.4-6.8-8.4-2.08.06-3.84.98-5.12 2.65-.56.7-1.6.87-2.4.3-.24-.2-.4-.45-.56-.76-1.13-3.16-2.65-5.6-5.05-7.88-5.36-5.44-13.04-6.9-20-3.86-6.32 2.9-10.16 8.74-10.48 15.75 0 .72.08 1.38.16 2.1.16.85-.4 1.67-1.28 1.87-3.36.86-9.2 3.4-9.2 11.48v.92c.32 5.94 5.36 10.2 12 10.2h8.56v3.4h-8.55c-8.48 0-14.96-5.68-15.44-13.5v-1.07c-.23-6.7 4-12.55 10.4-14.38v-1.06c.25-11.7 9.93-20.98 21.6-20.73 5.77.15 10.65 2.24 14.65 6.4 2.08 2.03 3.6 4.12 4.8 6.8 1.76-1.3 3.68-1.97 5.84-1.97 4.55 0 9.27 3.2 10.23 10.2 8 2.1 12.48 7.37 12.48 14.94 0 9.3-5.5 14.43-15.5 14.43zm-18.1 0h-12.8v-3.4h12.8zM937.08 206.13c-.47 0-.86-.16-1.18-.5l-9.6-9.6 2.4-2.4 8.38 8.37 8.4-8.38 2.38 2.4-9.57 9.6c-.33.35-.74.5-1.22.5z" stroke="#fff" stroke-opacity="0" fill="#232f3e"/><path d="M935.38 175.62h3.4v27.2h-3.4v-27.2zM923.14 160.85l-8.38-8.4-8.4 8.4-2.38-2.43 9.57-9.58c.67-.67 1.72-.67 2.4 0l9.58 9.58z" stroke="#fff" stroke-opacity="0" fill="#232f3e"/><path d="M913.05 150.03h3.4v28.8h-3.4v-28.8z" stroke="#fff" stroke-opacity="0" fill="#232f3e"/><path d="M950.32 178.87h-48.94c-8.47 0-14.95-5.7-15.43-13.5v-1.06c-.24-6.74 3.92-12.53 10.4-14.4v-1.07-.8c.55-8.13 5.2-14.72 12.55-18.07 8.23-3.56 17.27-1.83 23.6 4.56 2.15 2.08 3.6 4.16 4.8 6.8 1.75-1.32 3.66-1.98 5.9-1.98 4.48 0 9.2 3.2 10.16 10.25 8.16 2.02 12.55 7.3 12.55 14.86-.07 9.28-5.58 14.4-15.58 14.4zm-32.95-47.24c-2.63 0-4.87.46-7.27 1.47-6.32 2.94-10.16 8.78-10.4 15.73 0 .76 0 1.42.16 2.13.08.86-.48 1.68-1.28 1.88-3.44.86-9.27 3.4-9.27 11.47v.92c.33 5.93 5.44 10.2 12.08 10.2h48.94c8.16 0 12.08-3.6 12.08-11 0-6.36-3.68-10.36-11.04-11.83-.8-.17-1.28-.83-1.36-1.6-.32-6.18-3.92-8.36-6.8-8.36-2.08.05-3.83.96-5.1 2.64-.57.7-1.6.86-2.4.3-.25-.2-.4-.45-.57-.76-1.04-3.1-2.56-5.53-4.96-7.86-3.52-3.55-7.76-5.33-12.8-5.33z" stroke="#fff" stroke-opacity="0" fill="#fff" fill-opacity="0"/><use xlink:href="#g" transform="matrix(1,0,0,1,855.9137881691283,215.12992225829845) translate(23.179012345679006 17.77777777777778)"/><use xlink:href="#h" transform="matrix(1,0,0,1,855.9137881691283,215.12992225829845) translate(40.4320987654321 44.44444444444444)"/><path d="M925.9 179.43v308.6" stroke="#cc4e00" fill="none"/><path d="M926.4 179.44h-1v-.5h1z" stroke="#cc4e00" stroke-width=".05" fill="#cc4e00"/><path d="M925.9 502.8l-4.62-14.27h9.27z" stroke="#cc4e00" fill="#cc4e00"/><path d="M864.58 708.8a6 6 0 0 1 6-6h110.67a6 6 0 0 1 6 6v102c-20.5-18.05-33.25-18.05-40.97-18.05-12.27 0-28.58 18.04-40.85 18.04-7.6 0-20.5 0-40.85-18.05z" stroke="#cc4e00" fill="#fff"/><use xlink:href="#i" transform="matrix(1,0,0,1,869.5804548357951,707.7882048447327) translate(21.962962962962962 17.77777777777778)"/><use xlink:href="#j" transform="matrix(1,0,0,1,869.5804548357951,707.7882048447327) translate(50.01851851851852 44.44444444444444)"/><use xlink:href="#k" transform="matrix(1,0,0,1,869.5804548357951,707.7882048447327) translate(38.598765432098766 71.11111111111111)"/><path d="M925.9 625.84v60.1" stroke="#cc4e00" fill="none"/><path d="M926.4 625.85h-1v-.5h1z" stroke="#cc4e00" stroke-width=".05" fill="#cc4e00"/><path d="M925.9 700.7l-4.62-14.26h9.27z" stroke="#cc4e00" fill="#cc4e00"/><path d="M-17.33 312.96a6 6 0 0 1 6-6h228a6 6 0 0 1 6 6v48a6 6 0 0 1-6 6h-228a6 6 0 0 1-6-6z" stroke="#000" stroke-opacity="0" fill="#fff" fill-opacity="0"/><use xlink:href="#l" transform="matrix(1,0,0,1,-12.333333333333243,311.9601070202258) translate(143.7037037037037 30.27777777777778)"/><path d="M-17.33 372.96a6 6 0 0 1 6-6h228a6 6 0 0 1 6 6v48a6 6 0 0 1-6 6h-228a6 6 0 0 1-6-6z" stroke="#000" stroke-opacity="0" fill="#fff" fill-opacity="0"/><use xlink:href="#m" transform="matrix(1,0,0,1,-12.333333333333286,371.9601070202258) translate(110.06172839506173 30.27777777777778)"/><use xlink:href="#n" transform="matrix(1,0,0,1,-12.333333333333286,371.9601070202258) translate(164.62962962962962 30.27777777777778)"/><path d="M223.13 336.96h105.34" stroke="#3a414a" fill="none"/><path d="M223.14 337.46h-.5v-1h.5z" stroke="#3a414a" stroke-width=".05" fill="#3a414a"/><path d="M343.23 336.96l-14.26 4.64v-9.28z" stroke="#3a414a" fill="#3a414a"/><path d="M223.13 396.96H328.5" stroke="#3a414a" fill="none"/><path d="M223.14 397.46h-.5v-1h.5z" stroke="#3a414a" stroke-width=".05" fill="#3a414a"/><path d="M343.27 396.96L329 401.6v-9.28z" stroke="#3a414a" fill="#3a414a"/><path d="M452 570.67a6 6 0 0 1 6-6h228a6 6 0 0 1 6 6v48a6 6 0 0 1-6 6H458a6 6 0 0 1-6-6z" stroke="#000" stroke-opacity="0" fill="#fff" fill-opacity="0"/><use xlink:href="#o" transform="matrix(1,0,0,1,457.00000000000045,569.6666666666667) translate(153.58024691358025 30.27777777777778)"/><path d="M829.1 595.17H692.45v-1H829.1z" stroke="#3a414a" stroke-width=".05" fill="#3a414a"/><path d="M692.48 595.17h-.52v-1h.52z" fill="#3a414a"/><path d="M692.5 595.2h-.56v-1.06h.56zm-.5-1v.94h.45v-.95z" stroke="#3a414a" stroke-width=".05" fill="#3a414a"/><path d="M843.85 594.67l-14.26 4.63v-9.27z" fill="#3a414a"/><path d="M845.47 594.67L829.1 600v-10.66zm-15.38 3.94l12.13-3.93-12.14-3.95z" stroke="#3a414a" stroke-width=".05" fill="#3a414a"/><defs><path fill="#5a6c86" d="M33 0v-248h34V0H33" id="p"/><path fill="#5a6c86" d="M117-194c89-4 53 116 60 194h-32v-121c0-31-8-49-39-48C34-167 62-67 57 0H25l-1-190h30c1 10-1 24 2 32 11-22 29-35 61-36" id="q"/><path fill="#5a6c86" d="M115-194c55 1 70 41 70 98S169 2 115 4C84 4 66-9 55-30l1 105H24l-1-265h31l2 30c10-21 28-34 59-34zm-8 174c40 0 45-34 45-75s-6-73-45-74c-42 0-51 32-51 76 0 43 10 73 51 73" id="r"/><path fill="#5a6c86" d="M84 4C-5 8 30-112 23-190h32v120c0 31 7 50 39 49 72-2 45-101 50-169h31l1 190h-30c-1-10 1-25-2-33-11 22-28 36-60 37" id="s"/><path fill="#5a6c86" d="M59-47c-2 24 18 29 38 22v24C64 9 27 4 27-40v-127H5v-23h24l9-43h21v43h35v23H59v120" id="t"/><g id="a"><use transform="matrix(0.05,0,0,0.05,0,0)" xlink:href="#p"/><use transform="matrix(0.05,0,0,0.05,5,0)" xlink:href="#q"/><use transform="matrix(0.05,0,0,0.05,15,0)" xlink:href="#r"/><use transform="matrix(0.05,0,0,0.05,25,0)" xlink:href="#s"/><use transform="matrix(0.05,0,0,0.05,35,0)" xlink:href="#t"/></g><path fill="#1071e5" d="M114-163C36-179 61-72 57 0H25l-1-190h30c1 12-1 29 2 39 6-27 23-49 58-41v29" id="u"/><path fill="#1071e5" d="M135-143c-3-34-86-38-87 0 15 53 115 12 119 90S17 21 10-45l28-5c4 36 97 45 98 0-10-56-113-15-118-90-4-57 82-63 122-42 12 7 21 19 24 35" id="v"/><path fill="#1071e5" d="M16-82v-28h88v28H16" id="w"/><path fill="#1071e5" d="M177-190C167-65 218 103 67 71c-23-6-38-20-44-43l32-5c15 47 100 32 89-28v-30C133-14 115 1 83 1 29 1 15-40 15-95c0-56 16-97 71-98 29-1 48 16 59 35 1-10 0-23 2-32h30zM94-22c36 0 50-32 50-73 0-42-14-75-50-75-39 0-46 34-46 75s6 73 46 73" id="x"/><path fill="#1071e5" d="M100-194c63 0 86 42 84 106H49c0 40 14 67 53 68 26 1 43-12 49-29l28 8c-11 28-37 45-77 45C44 4 14-33 15-96c1-61 26-98 85-98zm52 81c6-60-76-77-97-28-3 7-6 17-6 28h103" id="y"/><path fill="#1071e5" d="M59-47c-2 24 18 29 38 22v24C64 9 27 4 27-40v-127H5v-23h24l9-43h21v43h35v23H59v120" id="z"/><path fill="#1071e5" d="M33 0v-38h34V0H33" id="A"/><path fill="#1071e5" d="M115-194c55 1 70 41 70 98S169 2 115 4C84 4 66-9 55-30l1 105H24l-1-265h31l2 30c10-21 28-34 59-34zm-8 174c40 0 45-34 45-75s-6-73-45-74c-42 0-51 32-51 76 0 43 10 73 51 73" id="B"/><path fill="#1071e5" d="M179-190L93 31C79 59 56 82 12 73V49c39 6 53-20 64-50L1-190h34L92-34l54-156h33" id="C"/><g id="b"><use transform="matrix(0.06172839506172839,0,0,0.06172839506172839,0,0)" xlink:href="#u"/><use transform="matrix(0.06172839506172839,0,0,0.06172839506172839,7.345679012345679,0)" xlink:href="#v"/><use transform="matrix(0.06172839506172839,0,0,0.06172839506172839,18.45679012345679,0)" xlink:href="#v"/><use transform="matrix(0.06172839506172839,0,0,0.06172839506172839,29.567901234567902,0)" xlink:href="#w"/><use transform="matrix(0.06172839506172839,0,0,0.06172839506172839,36.91358024691358,0)" xlink:href="#x"/><use transform="matrix(0.06172839506172839,0,0,0.06172839506172839,49.25925925925926,0)" xlink:href="#y"/><use transform="matrix(0.06172839506172839,0,0,0.06172839506172839,61.60493827160494,0)" xlink:href="#z"/><use transform="matrix(0.06172839506172839,0,0,0.06172839506172839,67.77777777777777,0)" xlink:href="#A"/><use transform="matrix(0.06172839506172839,0,0,0.06172839506172839,73.9506172839506,0)" xlink:href="#B"/><use transform="matrix(0.06172839506172839,0,0,0.06172839506172839,86.29629629629629,0)" xlink:href="#C"/></g><path fill="#cc4e00" d="M117-194c89-4 53 116 60 194h-32v-121c0-31-8-49-39-48C34-167 62-67 57 0H25l-1-190h30c1 10-1 24 2 32 11-22 29-35 61-36" id="D"/><path fill="#cc4e00" d="M100-194c63 0 86 42 84 106H49c0 40 14 67 53 68 26 1 43-12 49-29l28 8c-11 28-37 45-77 45C44 4 14-33 15-96c1-61 26-98 85-98zm52 81c6-60-76-77-97-28-3 7-6 17-6 28h103" id="E"/><path fill="#cc4e00" d="M206 0h-36l-40-164L89 0H53L-1-190h32L70-26l43-164h34l41 164 42-164h31" id="F"/><path fill="#cc4e00" d="M135-143c-3-34-86-38-87 0 15 53 115 12 119 90S17 21 10-45l28-5c4 36 97 45 98 0-10-56-113-15-118-90-4-57 82-63 122-42 12 7 21 19 24 35" id="G"/><path fill="#cc4e00" d="M16-82v-28h88v28H16" id="H"/><path fill="#cc4e00" d="M177-190C167-65 218 103 67 71c-23-6-38-20-44-43l32-5c15 47 100 32 89-28v-30C133-14 115 1 83 1 29 1 15-40 15-95c0-56 16-97 71-98 29-1 48 16 59 35 1-10 0-23 2-32h30zM94-22c36 0 50-32 50-73 0-42-14-75-50-75-39 0-46 34-46 75s6 73 46 73" id="I"/><path fill="#cc4e00" d="M59-47c-2 24 18 29 38 22v24C64 9 27 4 27-40v-127H5v-23h24l9-43h21v43h35v23H59v120" id="J"/><path fill="#cc4e00" d="M33 0v-38h34V0H33" id="K"/><path fill="#cc4e00" d="M115-194c55 1 70 41 70 98S169 2 115 4C84 4 66-9 55-30l1 105H24l-1-265h31l2 30c10-21 28-34 59-34zm-8 174c40 0 45-34 45-75s-6-73-45-74c-42 0-51 32-51 76 0 43 10 73 51 73" id="L"/><path fill="#cc4e00" d="M179-190L93 31C79 59 56 82 12 73V49c39 6 53-20 64-50L1-190h34L92-34l54-156h33" id="M"/><g id="c"><use transform="matrix(0.06172839506172839,0,0,0.06172839506172839,0,0)" xlink:href="#D"/><use transform="matrix(0.06172839506172839,0,0,0.06172839506172839,12.345679012345679,0)" xlink:href="#E"/><use transform="matrix(0.06172839506172839,0,0,0.06172839506172839,24.691358024691358,0)" xlink:href="#F"/><use transform="matrix(0.06172839506172839,0,0,0.06172839506172839,40.67901234567901,0)" xlink:href="#G"/><use transform="matrix(0.06172839506172839,0,0,0.06172839506172839,51.79012345679013,0)" xlink:href="#H"/><use transform="matrix(0.06172839506172839,0,0,0.06172839506172839,59.135802469135804,0)" xlink:href="#I"/><use transform="matrix(0.06172839506172839,0,0,0.06172839506172839,71.48148148148148,0)" xlink:href="#E"/><use transform="matrix(0.06172839506172839,0,0,0.06172839506172839,83.82716049382717,0)" xlink:href="#J"/><use transform="matrix(0.06172839506172839,0,0,0.06172839506172839,90,0)" xlink:href="#K"/><use transform="matrix(0.06172839506172839,0,0,0.06172839506172839,96.17283950617283,0)" xlink:href="#L"/><use transform="matrix(0.06172839506172839,0,0,0.06172839506172839,108.51851851851852,0)" xlink:href="#M"/></g><path fill="#1071e5" d="M143 4C61 4 22-44 18-125c-5-107 100-154 193-111 17 8 29 25 37 43l-32 9c-13-25-37-40-76-40-61 0-88 39-88 99 0 61 29 100 91 101 35 0 62-11 79-27v-45h-74v-28h105v86C228-13 192 4 143 4" id="N"/><path fill="#1071e5" d="M100-194c62-1 85 37 85 99 1 63-27 99-86 99S16-35 15-95c0-66 28-99 85-99zM99-20c44 1 53-31 53-75 0-43-8-75-51-75s-53 32-53 75 10 74 51 75" id="O"/><path fill="#1071e5" d="M24 0v-261h32V0H24" id="P"/><g id="d"><use transform="matrix(0.06172839506172839,0,0,0.06172839506172839,0,0)" xlink:href="#N"/><use transform="matrix(0.06172839506172839,0,0,0.06172839506172839,17.28395061728395,0)" xlink:href="#O"/><use transform="matrix(0.06172839506172839,0,0,0.06172839506172839,29.629629629629626,0)" xlink:href="#O"/><use transform="matrix(0.06172839506172839,0,0,0.06172839506172839,41.9753086419753,0)" xlink:href="#x"/><use transform="matrix(0.06172839506172839,0,0,0.06172839506172839,54.32098765432098,0)" xlink:href="#P"/><use transform="matrix(0.06172839506172839,0,0,0.06172839506172839,59.197530864197525,0)" xlink:href="#y"/></g><path fill="#1071e5" d="M96-169c-40 0-48 33-48 73s9 75 48 75c24 0 41-14 43-38l32 2c-6 37-31 61-74 61-59 0-76-41-82-99-10-93 101-131 147-64 4 7 5 14 7 22l-32 3c-4-21-16-35-41-35" id="Q"/><path fill="#1071e5" d="M108 0H70L1-190h34L89-25l56-165h34" id="R"/><g id="e"><use transform="matrix(0.06172839506172839,0,0,0.06172839506172839,0,0)" xlink:href="#u"/><use transform="matrix(0.06172839506172839,0,0,0.06172839506172839,7.345679012345679,0)" xlink:href="#v"/><use transform="matrix(0.06172839506172839,0,0,0.06172839506172839,18.45679012345679,0)" xlink:href="#v"/><use transform="matrix(0.06172839506172839,0,0,0.06172839506172839,29.567901234567902,0)" xlink:href="#A"/><use transform="matrix(0.06172839506172839,0,0,0.06172839506172839,35.74074074074074,0)" xlink:href="#Q"/><use transform="matrix(0.06172839506172839,0,0,0.06172839506172839,46.85185185185185,0)" xlink:href="#v"/><use transform="matrix(0.06172839506172839,0,0,0.06172839506172839,57.96296296296296,0)" xlink:href="#R"/></g><path fill="#333" d="M85 4C-2 5 27-109 22-190h50c7 57-23 150 33 157 60-5 35-97 40-157h50l1 190h-47c-2-12 1-28-3-38-12 25-28 42-61 42" id="S"/><path fill="#333" d="M135-150c-39-12-60 13-60 57V0H25l-1-190h47c2 13-1 29 3 40 6-28 27-53 61-41v41" id="T"/><path fill="#333" d="M25 0v-261h50V0H25" id="U"/><path fill="#333" d="M137-138c1-29-70-34-71-4 15 46 118 7 119 86 1 83-164 76-172 9l43-7c4 19 20 25 44 25 33 8 57-30 24-41C81-84 22-81 20-136c-2-80 154-74 161-7" id="V"/><g id="f"><use transform="matrix(0.06172839506172839,0,0,0.06172839506172839,0,0)" xlink:href="#S"/><use transform="matrix(0.06172839506172839,0,0,0.06172839506172839,13.518518518518517,0)" xlink:href="#T"/><use transform="matrix(0.06172839506172839,0,0,0.06172839506172839,22.160493827160494,0)" xlink:href="#U"/><use transform="matrix(0.06172839506172839,0,0,0.06172839506172839,28.333333333333332,0)" xlink:href="#V"/></g><path fill="#cc4e00" d="M33 0v-248h34V0H33" id="W"/><path fill="#cc4e00" d="M85-194c31 0 48 13 60 33l-1-100h32l1 261h-30c-2-10 0-23-3-31C134-8 116 4 85 4 32 4 16-35 15-94c0-66 23-100 70-100zm9 24c-40 0-46 34-46 75 0 40 6 74 45 74 42 0 51-32 51-76 0-42-9-74-50-73" id="X"/><path fill="#cc4e00" d="M24-231v-30h32v30H24zM24 0v-190h32V0H24" id="Y"/><path fill="#cc4e00" d="M108 0H70L1-190h34L89-25l56-165h34" id="Z"/><path fill="#cc4e00" d="M84 4C-5 8 30-112 23-190h32v120c0 31 7 50 39 49 72-2 45-101 50-169h31l1 190h-30c-1-10 1-25-2-33-11 22-28 36-60 37" id="aa"/><path fill="#cc4e00" d="M141-36C126-15 110 5 73 4 37 3 15-17 15-53c-1-64 63-63 125-63 3-35-9-54-41-54-24 1-41 7-42 31l-33-3c5-37 33-52 76-52 45 0 72 20 72 64v82c-1 20 7 32 28 27v20c-31 9-61-2-59-35zM48-53c0 20 12 33 32 33 41-3 63-29 60-74-43 2-92-5-92 41" id="ab"/><path fill="#cc4e00" d="M24 0v-261h32V0H24" id="ac"/><g id="g"><use transform="matrix(0.06172839506172839,0,0,0.06172839506172839,0,0)" xlink:href="#W"/><use transform="matrix(0.06172839506172839,0,0,0.06172839506172839,6.172839506172839,0)" xlink:href="#D"/><use transform="matrix(0.06172839506172839,0,0,0.06172839506172839,18.51851851851852,0)" xlink:href="#X"/><use transform="matrix(0.06172839506172839,0,0,0.06172839506172839,30.864197530864196,0)" xlink:href="#Y"/><use transform="matrix(0.06172839506172839,0,0,0.06172839506172839,35.74074074074074,0)" xlink:href="#Z"/><use transform="matrix(0.06172839506172839,0,0,0.06172839506172839,46.85185185185185,0)" xlink:href="#Y"/><use transform="matrix(0.06172839506172839,0,0,0.06172839506172839,51.72839506172839,0)" xlink:href="#X"/><use transform="matrix(0.06172839506172839,0,0,0.06172839506172839,64.07407407407408,0)" xlink:href="#aa"/><use transform="matrix(0.06172839506172839,0,0,0.06172839506172839,76.41975308641976,0)" xlink:href="#ab"/><use transform="matrix(0.06172839506172839,0,0,0.06172839506172839,88.76543209876544,0)" xlink:href="#ac"/></g><path fill="#cc4e00" d="M232-93c-1 65-40 97-104 97C67 4 28-28 28-90v-158h33c8 89-33 224 67 224 102 0 64-133 71-224h33v155" id="ad"/><path fill="#cc4e00" d="M233-177c-1 41-23 64-60 70L243 0h-38l-65-103H63V0H30v-248c88 3 205-21 203 71zM63-129c60-2 137 13 137-47 0-61-80-42-137-45v92" id="ae"/><path fill="#cc4e00" d="M30 0v-248h33v221h125V0H30" id="af"/><path fill="#cc4e00" d="M185-189c-5-48-123-54-124 2 14 75 158 14 163 119 3 78-121 87-175 55-17-10-28-26-33-46l33-7c5 56 141 63 141-1 0-78-155-14-162-118-5-82 145-84 179-34 5 7 8 16 11 25" id="ag"/><g id="h"><use transform="matrix(0.06172839506172839,0,0,0.06172839506172839,0,0)" xlink:href="#ad"/><use transform="matrix(0.06172839506172839,0,0,0.06172839506172839,15.987654320987653,0)" xlink:href="#ae"/><use transform="matrix(0.06172839506172839,0,0,0.06172839506172839,31.975308641975307,0)" xlink:href="#af"/><use transform="matrix(0.06172839506172839,0,0,0.06172839506172839,44.32098765432099,0)" xlink:href="#ag"/></g><path fill="#cc4e00" d="M114-163C36-179 61-72 57 0H25l-1-190h30c1 12-1 29 2 39 6-27 23-49 58-41v29" id="ah"/><path fill="#cc4e00" d="M96-169c-40 0-48 33-48 73s9 75 48 75c24 0 41-14 43-38l32 2c-6 37-31 61-74 61-59 0-76-41-82-99-10-93 101-131 147-64 4 7 5 14 7 22l-32 3c-4-21-16-35-41-35" id="ai"/><g id="i"><use transform="matrix(0.06172839506172839,0,0,0.06172839506172839,0,0)" xlink:href="#ah"/><use transform="matrix(0.06172839506172839,0,0,0.06172839506172839,7.345679012345679,0)" xlink:href="#G"/><use transform="matrix(0.06172839506172839,0,0,0.06172839506172839,18.45679012345679,0)" xlink:href="#G"/><use transform="matrix(0.06172839506172839,0,0,0.06172839506172839,29.567901234567902,0)" xlink:href="#K"/><use transform="matrix(0.06172839506172839,0,0,0.06172839506172839,35.74074074074074,0)" xlink:href="#ai"/><use transform="matrix(0.06172839506172839,0,0,0.06172839506172839,46.85185185185185,0)" xlink:href="#G"/><use transform="matrix(0.06172839506172839,0,0,0.06172839506172839,57.96296296296296,0)" xlink:href="#Z"/></g><path fill="#cc4e00" d="M118-107v75H92v-75H18v-26h74v-75h26v75h74v26h-74" id="aj"/><use transform="matrix(0.06172839506172839,0,0,0.06172839506172839,0,0)" xlink:href="#aj" id="j"/><path fill="#cc4e00" d="M141 0L90-78 38 0H4l68-98-65-92h35l48 74 47-74h35l-64 92 68 98h-35" id="ak"/><g id="k"><use transform="matrix(0.06172839506172839,0,0,0.06172839506172839,0,0)" xlink:href="#J"/><use transform="matrix(0.06172839506172839,0,0,0.06172839506172839,6.172839506172839,0)" xlink:href="#E"/><use transform="matrix(0.06172839506172839,0,0,0.06172839506172839,18.51851851851852,0)" xlink:href="#ak"/><use transform="matrix(0.06172839506172839,0,0,0.06172839506172839,29.62962962962963,0)" xlink:href="#J"/></g><path fill="#3a414a" d="M194 0L95-120 63-95V0H30v-248h33v124l119-124h40L117-140 236 0h-42" id="al"/><path fill="#3a414a" d="M100-194c63 0 86 42 84 106H49c0 40 14 67 53 68 26 1 43-12 49-29l28 8c-11 28-37 45-77 45C44 4 14-33 15-96c1-61 26-98 85-98zm52 81c6-60-76-77-97-28-3 7-6 17-6 28h103" id="am"/><path fill="#3a414a" d="M179-190L93 31C79 59 56 82 12 73V49c39 6 53-20 64-50L1-190h34L92-34l54-156h33" id="an"/><path fill="#3a414a" d="M206 0h-36l-40-164L89 0H53L-1-190h32L70-26l43-164h34l41 164 42-164h31" id="ao"/><path fill="#3a414a" d="M100-194c62-1 85 37 85 99 1 63-27 99-86 99S16-35 15-95c0-66 28-99 85-99zM99-20c44 1 53-31 53-75 0-43-8-75-51-75s-53 32-53 75 10 74 51 75" id="ap"/><path fill="#3a414a" d="M114-163C36-179 61-72 57 0H25l-1-190h30c1 12-1 29 2 39 6-27 23-49 58-41v29" id="aq"/><path fill="#3a414a" d="M85-194c31 0 48 13 60 33l-1-100h32l1 261h-30c-2-10 0-23-3-31C134-8 116 4 85 4 32 4 16-35 15-94c0-66 23-100 70-100zm9 24c-40 0-46 34-46 75 0 40 6 74 45 74 42 0 51-32 51-76 0-42-9-74-50-73" id="ar"/><g id="l"><use transform="matrix(0.06172839506172839,0,0,0.06172839506172839,0,0)" xlink:href="#al"/><use transform="matrix(0.06172839506172839,0,0,0.06172839506172839,14.814814814814813,0)" xlink:href="#am"/><use transform="matrix(0.06172839506172839,0,0,0.06172839506172839,27.160493827160494,0)" xlink:href="#an"/><use transform="matrix(0.06172839506172839,0,0,0.06172839506172839,38.27160493827161,0)" xlink:href="#ao"/><use transform="matrix(0.06172839506172839,0,0,0.06172839506172839,54.25925925925926,0)" xlink:href="#ap"/><use transform="matrix(0.06172839506172839,0,0,0.06172839506172839,66.60493827160494,0)" xlink:href="#aq"/><use transform="matrix(0.06172839506172839,0,0,0.06172839506172839,73.95061728395062,0)" xlink:href="#ar"/></g><path fill="#3a414a" d="M127-220V0H93v-220H8v-28h204v28h-85" id="as"/><path fill="#3a414a" d="M24-231v-30h32v30H24zM24 0v-190h32V0H24" id="at"/><path fill="#3a414a" d="M210-169c-67 3-38 105-44 169h-31v-121c0-29-5-50-35-48C34-165 62-65 56 0H25l-1-190h30c1 10-1 24 2 32 10-44 99-50 107 0 11-21 27-35 58-36 85-2 47 119 55 194h-31v-121c0-29-5-49-35-48" id="au"/><g id="m"><use transform="matrix(0.06172839506172839,0,0,0.06172839506172839,0,0)" xlink:href="#as"/><use transform="matrix(0.06172839506172839,0,0,0.06172839506172839,12.716049382716047,0)" xlink:href="#at"/><use transform="matrix(0.06172839506172839,0,0,0.06172839506172839,17.592592592592588,0)" xlink:href="#au"/><use transform="matrix(0.06172839506172839,0,0,0.06172839506172839,36.04938271604938,0)" xlink:href="#am"/></g><path fill="#3a414a" d="M233-177c-1 41-23 64-60 70L243 0h-38l-65-103H63V0H30v-248c88 3 205-21 203 71zM63-129c60-2 137 13 137-47 0-61-80-42-137-45v92" id="av"/><path fill="#3a414a" d="M141-36C126-15 110 5 73 4 37 3 15-17 15-53c-1-64 63-63 125-63 3-35-9-54-41-54-24 1-41 7-42 31l-33-3c5-37 33-52 76-52 45 0 72 20 72 64v82c-1 20 7 32 28 27v20c-31 9-61-2-59-35zM48-53c0 20 12 33 32 33 41-3 63-29 60-74-43 2-92-5-92 41" id="aw"/><path fill="#3a414a" d="M117-194c89-4 53 116 60 194h-32v-121c0-31-8-49-39-48C34-167 62-67 57 0H25l-1-190h30c1 10-1 24 2 32 11-22 29-35 61-36" id="ax"/><path fill="#3a414a" d="M177-190C167-65 218 103 67 71c-23-6-38-20-44-43l32-5c15 47 100 32 89-28v-30C133-14 115 1 83 1 29 1 15-40 15-95c0-56 16-97 71-98 29-1 48 16 59 35 1-10 0-23 2-32h30zM94-22c36 0 50-32 50-73 0-42-14-75-50-75-39 0-46 34-46 75s6 73 46 73" id="ay"/><g id="n"><use transform="matrix(0.06172839506172839,0,0,0.06172839506172839,0,0)" xlink:href="#av"/><use transform="matrix(0.06172839506172839,0,0,0.06172839506172839,15.987654320987653,0)" xlink:href="#aw"/><use transform="matrix(0.06172839506172839,0,0,0.06172839506172839,28.333333333333332,0)" xlink:href="#ax"/><use transform="matrix(0.06172839506172839,0,0,0.06172839506172839,40.67901234567901,0)" xlink:href="#ay"/><use transform="matrix(0.06172839506172839,0,0,0.06172839506172839,53.02469135802469,0)" xlink:href="#am"/></g><path fill="#3a414a" d="M135-143c-3-34-86-38-87 0 15 53 115 12 119 90S17 21 10-45l28-5c4 36 97 45 98 0-10-56-113-15-118-90-4-57 82-63 122-42 12 7 21 19 24 35" id="az"/><path fill="#3a414a" d="M108 0H70L1-190h34L89-25l56-165h34" id="aA"/><path fill="#3a414a" d="M59-47c-2 24 18 29 38 22v24C64 9 27 4 27-40v-127H5v-23h24l9-43h21v43h35v23H59v120" id="aB"/><g id="o"><use transform="matrix(0.06172839506172839,0,0,0.06172839506172839,0,0)" xlink:href="#az"/><use transform="matrix(0.06172839506172839,0,0,0.06172839506172839,11.11111111111111,0)" xlink:href="#am"/><use transform="matrix(0.06172839506172839,0,0,0.06172839506172839,23.45679012345679,0)" xlink:href="#aA"/><use transform="matrix(0.06172839506172839,0,0,0.06172839506172839,34.5679012345679,0)" xlink:href="#am"/><use transform="matrix(0.06172839506172839,0,0,0.06172839506172839,46.913580246913575,0)" xlink:href="#aq"/><use transform="matrix(0.06172839506172839,0,0,0.06172839506172839,54.25925925925925,0)" xlink:href="#at"/><use transform="matrix(0.06172839506172839,0,0,0.06172839506172839,59.1358024691358,0)" xlink:href="#aB"/><use transform="matrix(0.06172839506172839,0,0,0.06172839506172839,65.30864197530863,0)" xlink:href="#an"/></g></defs></g></svg>